<svg width="720" height="720" viewBox="0 0 720 720" fill="none" xmlns="http://www.w3.org/2000/svg">
<rect width="720" height="720" fill="black"/>
<path fill-rule="evenodd" clip-rule="evenodd" d="M548.846 411.195V409.295C548.773 409.596 548.736 409.916 548.736 410.245C548.736 410.574 548.782 410.893 548.846 411.195Z" fill="url(#paint0_linear_1439_568)"/>
<path fill-rule="evenodd" clip-rule="evenodd" d="M411.193 512.579C411.165 521.751 411.129 530.923 411.101 540.104C411.129 530.978 411.165 521.852 411.193 512.735V512.579Z" fill="url(#paint1_linear_1439_568)"/>
<path d="M554.223 233.475C554.223 231.419 552.403 229.364 549.65 229.364C546.898 229.364 545.078 231.419 545.078 233.475C545.078 235.53 546.898 237.586 549.65 237.586V242.153C544.603 242.153 540.506 238.271 540.506 233.475C540.506 228.679 544.603 224.796 549.65 224.796C554.698 224.796 558.795 228.679 558.795 233.475C558.795 238.271 554.698 242.153 549.65 242.153V237.586C552.403 237.586 554.223 235.53 554.223 233.475Z" fill="url(#paint2_linear_1439_568)"/>
<path fill-rule="evenodd" clip-rule="evenodd" d="M558.795 304.831V304.777V304.731C558.795 304.749 558.795 304.767 558.795 304.777C558.795 304.795 558.795 304.822 558.795 304.831Z" fill="url(#paint3_linear_1439_568)"/>
<path d="M542.792 270.775V256.889H532.989L529.542 248.338L536.473 241.505L526.707 231.62L519.793 238.435L509.844 234.196V225.253H495.944V234.653L486.562 238.426L479.64 231.41L469.736 241.167L477.07 248.594L473.531 256.889H465.063V270.775H473.22L477.134 280.476L471.373 286.149L481.139 296.043L486.965 290.297L495.944 294.125V300.739H509.844V294.362L518.733 290.781L524.329 296.445L534.224 286.688L528.993 281.39L533.519 270.775H542.792ZM490.028 264.334C490.028 257.007 495.981 251.069 503.315 251.069C510.649 251.069 516.593 257.007 516.593 264.334C516.593 271.661 510.649 277.599 503.315 277.599C495.981 277.599 490.028 271.661 490.028 264.334Z" fill="url(#paint4_linear_1439_568)"/>
<path d="M525.326 200.779L525.463 193.325L520.196 193.224L518.431 188.592L522.226 184.993L517.078 179.585L513.292 183.175L507.988 180.8L508.079 175.995L500.617 175.858L500.526 180.91L495.451 182.837L491.802 179L486.379 184.144L490.238 188.209L488.254 192.63L483.709 192.539L483.572 199.993L487.952 200.076L489.955 205.329L486.8 208.316L491.948 213.733L495.131 210.709L499.913 212.856L499.849 216.41L507.311 216.556L507.375 213.13L512.185 211.294L515.13 214.391L520.543 209.248L517.791 206.352L520.333 200.697L525.326 200.779ZM497.051 196.787C497.124 192.85 500.389 189.725 504.321 189.798C508.262 189.871 511.39 193.124 511.316 197.061C511.243 200.998 507.988 204.123 504.047 204.05C500.114 203.967 496.978 200.715 497.051 196.787Z" fill="url(#paint5_linear_1439_568)"/>
<path fill-rule="evenodd" clip-rule="evenodd" d="M523.689 488.553L531.526 491.897L536.976 486.525L544.676 494.318L539.207 499.699L541.923 506.44H549.65V517.385H542.344L538.778 525.753L542.902 529.928L535.101 537.62L530.694 533.152L523.689 535.975V541H512.734V535.783L505.656 532.769L501.065 537.3L493.366 529.498L497.911 525.031L494.82 517.385H488.391V506.44H495.067L497.856 499.9L492.076 494.044L499.886 486.352L505.336 491.879L512.734 488.9V481.492H523.689V488.553ZM518.559 503.426C513.511 503.426 509.414 507.518 509.414 512.561C509.414 517.604 513.511 521.697 518.559 521.697C523.607 521.697 527.703 517.604 527.703 512.561C527.703 510.981 527.301 509.492 526.588 508.185C525.042 505.353 522.025 503.426 518.559 503.426Z" fill="url(#paint6_linear_1439_568)"/>
<path fill-rule="evenodd" clip-rule="evenodd" d="M587.6 343.556C584.244 343.556 581.327 341.656 579.882 338.87H551.543L529.386 361.27C528.81 363.691 526.643 365.481 524.046 365.481C521.019 365.481 518.559 363.024 518.559 360C518.559 356.976 521.019 354.519 524.046 354.519C525.262 354.519 526.387 354.912 527.292 355.578L549.257 333.379H579.041C579.745 329.296 583.312 326.19 587.6 326.19C592.401 326.19 596.288 330.072 596.288 334.869C596.288 339.665 592.401 343.556 587.6 343.556ZM587.6 338.989C585.323 338.989 583.485 337.143 583.485 334.878C583.485 332.612 585.323 330.767 587.6 330.767C589.868 330.767 591.715 332.612 591.715 334.878C591.715 337.143 589.877 338.989 587.6 338.989Z" fill="url(#paint7_linear_1439_568)"/>
<path fill-rule="evenodd" clip-rule="evenodd" d="M450.67 347.695C471.885 347.43 493.11 347.156 514.325 346.891C493.101 347.156 471.885 347.43 450.67 347.695ZM450.642 347.695H450.652H450.661C450.661 347.695 450.652 347.695 450.642 347.695Z" fill="url(#paint8_linear_1439_568)"/>
<path fill-rule="evenodd" clip-rule="evenodd" d="M402.112 342.012L396.927 342.022C396.013 340.743 394.513 339.902 392.821 339.902C390.041 339.902 387.792 342.149 387.792 344.927C387.792 347.704 390.041 349.951 392.821 349.951C394.257 349.951 395.556 349.348 396.47 348.38L402.158 348.307C418.307 348.106 434.447 347.896 450.597 347.695H450.642H450.652L452.362 347.676C473.01 347.411 493.658 347.156 514.307 346.891H515.358L516.117 346.123C528.17 333.781 540.222 321.449 552.275 309.107L553.134 309.098C554.726 309.088 556.308 308.961 557.899 308.823C558.511 308.769 559.124 308.723 559.728 308.677C561.163 311.482 564.09 313.409 567.464 313.409C572.265 313.409 576.151 309.527 576.151 304.731C576.151 299.935 572.265 296.052 567.464 296.052C562.663 296.052 558.777 299.935 558.777 304.731V304.877C558.484 304.85 558.191 304.831 557.89 304.804C556.299 304.667 554.717 304.539 553.125 304.53L551.287 304.521H550.318L549.66 305.197L549.586 305.27L549.577 305.279L549.541 305.315C537.424 317.456 525.317 329.597 513.209 341.738C492.854 341.784 472.489 341.839 452.133 341.885C435.472 341.93 418.792 341.967 402.112 342.012ZM563.367 304.731C563.367 307.006 565.205 308.842 567.482 308.842C569.759 308.842 571.597 307.006 571.597 304.731C571.597 302.456 569.759 300.62 567.482 300.62C565.214 300.62 563.367 302.456 563.367 304.731Z" fill="url(#paint9_linear_1439_568)"/>
<path fill-rule="evenodd" clip-rule="evenodd" d="M562.069 277.599C562.636 277.717 563.23 277.781 563.834 277.781C568.634 277.781 572.521 273.899 572.521 269.103C572.521 264.307 568.634 260.424 563.834 260.424C559.033 260.424 555.146 264.307 555.146 269.103C555.146 270.921 555.713 272.62 556.673 274.018L517.535 316.159L464.341 317.173C463.372 313.437 459.979 310.669 455.928 310.669C451.127 310.669 447.241 314.551 447.241 319.347C447.241 324.144 451.127 328.026 455.928 328.026C459.183 328.026 462.027 326.236 463.518 323.586L520.379 322.508L562.069 277.599ZM567.94 269.103C567.94 266.828 566.101 264.992 563.824 264.992C561.547 264.992 559.709 266.828 559.709 269.103C559.709 271.377 561.547 273.214 563.824 273.214C566.101 273.214 567.94 271.377 567.94 269.103ZM455.919 323.458C453.642 323.458 451.804 321.613 451.804 319.347C451.804 317.082 453.642 315.237 455.919 315.237C458.196 315.237 460.034 317.082 460.034 319.347C460.034 321.613 458.196 323.458 455.919 323.458Z" fill="url(#paint10_linear_1439_568)"/>
<path d="M397.266 126.645C400.786 125.54 403.338 122.251 403.338 118.369C403.338 113.573 399.451 109.69 394.65 109.69C389.849 109.69 385.963 113.573 385.963 118.369C385.963 121.895 388.066 124.928 391.093 126.289H390.864V186.592L419.844 215.907V278.302L391.322 306.174C391.066 306.129 390.8 306.11 390.535 306.11C388.011 306.11 385.963 308.157 385.963 310.678C385.963 313.199 388.011 315.246 390.535 315.246C392.785 315.246 394.65 313.629 395.034 311.491L426.245 280.997V213.285L397.266 183.961V126.645ZM394.65 122.48C392.373 122.48 390.535 120.643 390.535 118.369C390.535 116.094 392.373 114.258 394.65 114.258C396.927 114.258 398.765 116.094 398.765 118.369C398.765 120.643 396.927 122.48 394.65 122.48Z" fill="url(#paint11_linear_1439_568)"/>
<path fill-rule="evenodd" clip-rule="evenodd" d="M429.903 152.946C426.665 151.685 424.379 148.543 424.379 144.861C424.379 140.065 428.266 136.183 433.067 136.183C437.867 136.183 441.754 140.065 441.754 144.861C441.754 148.506 439.504 151.631 436.313 152.919L437.081 176.872C437.712 177.593 438.105 178.544 438.105 179.585C438.105 181.86 436.267 183.696 433.99 183.696C431.713 183.696 429.875 181.86 429.875 179.585C429.875 178.662 430.177 177.813 430.689 177.128L429.903 152.946ZM433.057 148.972C430.78 148.972 428.942 147.136 428.942 144.861C428.942 142.587 430.78 140.75 433.057 140.75C435.334 140.75 437.172 142.587 437.172 144.861C437.172 147.136 435.334 148.972 433.057 148.972Z" fill="url(#paint12_linear_1439_568)"/>
<path fill-rule="evenodd" clip-rule="evenodd" d="M453.642 129.66C456.358 128.189 458.205 125.321 458.205 122.023C458.205 117.227 454.318 113.344 449.518 113.344C444.717 113.344 440.83 117.227 440.83 122.023C440.83 126.024 443.546 129.404 447.241 130.4V208.462L435.435 220.256V282.477L394.486 324.381C394.385 324.372 394.294 324.372 394.193 324.372C391.669 324.372 389.621 326.418 389.621 328.94C389.621 331.461 391.669 333.507 394.193 333.507C396.644 333.507 398.646 331.58 398.756 329.168L441.827 285.09V222.905L453.633 211.111V129.66H453.642ZM453.633 122.023C453.633 119.748 451.795 117.912 449.518 117.912C447.241 117.912 445.403 119.748 445.403 122.023C445.403 124.298 447.241 126.134 449.518 126.134C451.795 126.134 453.633 124.298 453.633 122.023Z" fill="url(#paint13_linear_1439_568)"/>
<path d="M479.695 145.318C479.695 142.797 477.646 140.75 475.122 140.75C472.598 140.75 470.55 142.797 470.55 145.318C470.55 147.839 472.598 149.886 475.122 149.886C477.655 149.886 479.695 147.839 479.695 145.318ZM484.267 145.318C484.267 150.361 480.17 154.454 475.122 154.454C470.075 154.454 465.978 150.361 465.978 145.318C465.978 140.275 470.075 136.183 475.122 136.183C480.179 136.183 484.267 140.275 484.267 145.318Z" fill="url(#paint14_linear_1439_568)"/>
<path d="M497.526 147.145C492.652 147.145 488.656 150.964 488.4 155.769L465.493 175.045V230.076L451.539 243.441V293.878L417.804 327.25C417.42 327.158 417.018 327.103 416.597 327.103C413.817 327.103 411.568 329.351 411.568 332.128C411.568 334.905 413.817 337.152 416.597 337.152C419.258 337.152 421.435 335.088 421.618 332.475L457.94 296.546V246.173L471.894 232.808V178.023L490.613 162.264C492.287 164.192 494.765 165.416 497.526 165.416C502.574 165.416 506.671 161.323 506.671 156.281C506.671 151.238 502.583 147.145 497.526 147.145ZM497.526 160.848C495.003 160.848 492.954 158.802 492.954 156.281C492.954 153.759 495.003 151.713 497.526 151.713C500.05 151.713 502.099 153.759 502.099 156.281C502.099 158.802 500.06 160.848 497.526 160.848Z" fill="url(#paint15_linear_1439_568)"/>
<path fill-rule="evenodd" clip-rule="evenodd" d="M432.682 200.496L412.693 180.526V119.209C409.364 117.994 406.995 114.806 406.995 111.06C406.995 106.264 410.882 102.382 415.683 102.382C420.484 102.382 424.37 106.264 424.37 111.06C424.37 114.641 422.194 117.72 419.094 119.045V177.877L436.798 195.563C439.029 195.608 440.83 197.426 440.83 199.674C440.83 201.948 438.992 203.785 436.715 203.785C434.731 203.785 433.067 202.369 432.682 200.496ZM415.683 115.171C413.406 115.171 411.568 113.335 411.568 111.06C411.568 108.786 413.406 106.949 415.683 106.949C417.96 106.949 419.798 108.786 419.798 111.06C419.798 113.335 417.96 115.171 415.683 115.171Z" fill="url(#paint16_linear_1439_568)"/>
<path fill-rule="evenodd" clip-rule="evenodd" d="M391.98 220.365C388.972 219.004 386.887 215.971 386.887 212.463C386.887 207.667 390.773 203.785 395.574 203.785C400.375 203.785 404.261 207.667 404.261 212.463C404.261 216.309 401.756 219.571 398.281 220.713C400.603 222.713 402.835 224.805 404.975 226.989L405.761 227.792V228.907C405.761 239.504 405.679 250.101 405.505 260.698L405.514 261.466L405.029 262.16C403.411 264.325 401.783 266.49 400.146 268.655C399.918 268.957 399.689 269.267 399.451 269.569C402.295 270.994 404.252 273.935 404.252 277.334C404.252 282.13 400.366 286.012 395.565 286.012C390.764 286.012 386.877 282.13 386.877 277.334C386.877 273.031 390.014 269.459 394.12 268.774C394.385 268.408 394.751 267.952 395.108 267.504C395.583 266.901 396.068 266.298 396.333 265.905C397.714 263.914 399.104 261.922 400.494 259.931C400.338 249.964 400.256 239.988 400.256 230.012C397.869 227.537 395.592 224.942 393.434 222.247C392.949 221.626 392.465 221.005 391.98 220.365ZM391.45 212.463C391.45 214.738 393.288 216.574 395.565 216.574C397.842 216.574 399.68 214.738 399.68 212.463C399.68 210.189 397.842 208.352 395.565 208.352C393.297 208.352 391.45 210.189 391.45 212.463ZM395.565 281.436C393.288 281.436 391.45 279.599 391.45 277.325C391.45 275.05 393.288 273.214 395.565 273.214C397.842 273.214 399.68 275.05 399.68 277.325C399.68 279.599 397.842 281.436 395.565 281.436Z" fill="url(#paint17_linear_1439_568)"/>
<path fill-rule="evenodd" clip-rule="evenodd" d="M577.999 369.592C574.085 369.592 570.802 366.861 569.97 363.197H553.976L539.262 379.002H515.459L500.434 363.197H393.58C392.794 364.559 391.313 365.481 389.621 365.481C387.097 365.481 385.049 363.435 385.049 360.914C385.049 358.392 387.097 356.346 389.621 356.346C391.313 356.346 392.794 357.269 393.58 358.63H502.391L517.416 374.434H537.269L551.991 358.63H570.244C571.378 355.432 574.423 353.148 578.008 353.148C582.552 353.148 586.238 356.83 586.238 361.37C586.238 365.911 582.543 369.592 577.999 369.592ZM577.999 365.024C575.978 365.024 574.341 363.389 574.341 361.37C574.341 359.351 575.978 357.716 577.999 357.716C580.019 357.716 581.656 359.351 581.656 361.37C581.656 363.389 580.019 365.024 577.999 365.024Z" fill="url(#paint18_linear_1439_568)"/>
<path fill-rule="evenodd" clip-rule="evenodd" d="M572.466 396.167H509.094L492.634 380.829H446.902C445.896 382.053 444.369 382.838 442.659 382.838C439.632 382.838 437.172 380.381 437.172 377.357C437.172 374.333 439.632 371.876 442.659 371.876C444.616 371.876 446.326 372.899 447.305 374.434H495.158L511.618 389.772H570.783C571.405 385.844 574.807 382.838 578.913 382.838C583.458 382.838 587.143 386.52 587.143 391.06C587.143 395.601 583.458 399.282 578.913 399.282C576.307 399.282 573.975 398.067 572.466 396.167ZM578.913 394.715C576.892 394.715 575.255 393.079 575.255 391.06C575.255 389.041 576.892 387.406 578.913 387.406C580.934 387.406 582.571 389.041 582.571 391.06C582.571 393.079 580.934 394.715 578.913 394.715Z" fill="url(#paint19_linear_1439_568)"/>
<path d="M548.736 410.245C548.736 409.916 548.773 409.596 548.846 409.295C549.275 407.486 550.903 406.134 552.851 406.134C555.128 406.134 556.966 407.979 556.966 410.245C556.966 412.51 555.128 414.356 552.851 414.356C550.903 414.356 549.275 413.004 548.846 411.195C548.782 410.893 548.736 410.574 548.736 410.245ZM506.717 413.524H544.804C546.102 416.694 549.211 418.923 552.851 418.923C557.652 418.923 561.538 415.041 561.538 410.245C561.538 405.449 557.652 401.566 552.851 401.566C549.157 401.566 545.993 403.877 544.74 407.13H509.387L493.128 390.686H449.508C448.658 388.758 446.729 387.406 444.479 387.406C441.452 387.406 438.992 389.864 438.992 392.887C438.992 395.911 441.452 398.369 444.479 398.369C445.823 398.369 447.058 397.884 448.009 397.081H490.439L506.717 413.524Z" fill="url(#paint20_linear_1439_568)"/>
<path d="M571.597 454.551C571.597 452.286 569.759 450.44 567.482 450.44C565.205 450.44 563.367 452.286 563.367 454.551C563.367 456.817 565.205 458.662 567.482 458.662C569.759 458.662 571.597 456.817 571.597 454.551ZM576.17 454.551C576.17 459.347 572.283 463.23 567.482 463.23C562.681 463.23 558.795 459.347 558.795 454.551C558.795 449.755 562.681 445.873 567.482 445.873C572.283 445.873 576.17 449.755 576.17 454.551Z" fill="url(#paint21_linear_1439_568)"/>
<path fill-rule="evenodd" clip-rule="evenodd" d="M367.363 126.728V581.652C367.692 610.438 388.816 635.085 417.429 639.169C421.261 639.717 425.175 640 429.162 640C470.257 640 506.205 603.915 513.063 573.312C552.074 567.419 584.061 533.956 584.564 492.582L584.573 491.605C584.573 489.924 584.674 488.252 584.775 486.589C584.976 483.31 585.168 480.085 584.573 476.933C604.655 460.298 616.625 442.182 616.991 416.375L617 415.141C617 399.355 613.15 382.848 604.975 370.643C611.815 361.133 613.351 350.39 613.443 337.901L613.452 336.686C614.366 319.156 606.822 302.465 594.797 291.512C596.653 284.788 598.528 277.727 598.647 270.437L598.656 269.733C598.656 238.061 583.494 216.117 553.391 197.865C547.565 156.271 521.769 126.728 478.058 117.346C466.334 96.6812 442.659 80 414.064 80H413.525C387.929 80.201 367.363 101.176 367.363 126.728ZM380.165 126.728V374.434H408.267L460.509 425.674H488.071L508.463 445.891H529.834C530.831 442.2 534.205 439.478 538.22 439.478C543.021 439.478 546.907 443.361 546.907 448.157C546.907 452.953 543.021 456.835 538.22 456.835C534.644 456.835 531.572 454.67 530.237 451.582V452.286H505.821L485.428 432.069H457.885L405.642 380.829H380.165V580.976C380.165 603.833 396.854 623.319 419.24 626.507C422.477 626.973 425.797 627.21 429.171 627.21C445.96 627.21 462.366 619.792 475.625 608.428C488.985 596.972 497.883 582.575 500.581 570.516L502.492 561.975L511.161 560.668C544.676 555.607 571.78 526.657 571.78 491.605C571.78 489.531 571.927 487.101 572.036 485.301C572.073 484.634 572.109 484.04 572.128 483.593C572.228 481.428 572.164 480.194 572 479.29L570.61 471.89L576.407 467.085C594.907 451.765 604.207 436.628 604.207 415.141C604.207 401.118 600.732 387.297 594.34 377.759L589.402 370.387L594.587 363.179C599.232 356.72 600.659 348.992 600.659 336.686V336.348L600.677 336.02C601.381 322.508 595.519 309.472 586.183 300.967L580.376 295.678L582.47 288.114C584.427 281.034 585.863 275.306 585.863 269.733C585.863 256.085 582.644 245.141 576.554 235.695C570.363 226.093 560.724 217.278 546.752 208.809L541.557 205.657L540.716 199.646C538.11 181.047 531.151 165.772 520.507 154.189C509.881 142.623 494.975 134.072 475.378 129.861L469.764 128.655L466.929 123.658C457.226 106.557 437.566 92.7896 414.064 92.7896H413.625L412.766 92.8078C394.687 93.4108 380.165 108.402 380.165 126.728ZM538.22 452.268C535.943 452.268 534.105 450.422 534.105 448.157C534.105 445.891 535.943 444.046 538.22 444.046C540.497 444.046 542.335 445.891 542.335 448.157C542.335 450.422 540.497 452.268 538.22 452.268Z" fill="url(#paint22_linear_1439_568)"/>
<path fill-rule="evenodd" clip-rule="evenodd" d="M400.722 390.686L455.571 443.379C456.166 443.37 456.943 443.361 457.839 443.351C459.997 443.324 462.896 443.287 465.841 443.269C468.785 443.242 471.785 443.233 474.144 443.251C475.324 443.26 476.357 443.278 477.162 443.297C477.555 443.306 477.921 443.324 478.222 443.342C478.378 443.351 478.67 443.37 478.972 443.424L479.283 443.488L479.493 443.552C479.978 443.708 480.326 443.936 480.417 443.991C480.609 444.11 480.801 444.247 480.966 444.375C481.304 444.621 481.697 444.95 482.118 445.306C482.978 446.037 484.093 447.024 485.355 448.184C487.897 450.504 491.134 453.546 494.317 456.57C497.499 459.594 500.636 462.609 502.977 464.856C504.147 465.98 505.116 466.921 505.793 467.578L505.93 467.706H539.948L548.343 476.093C549.824 474.905 551.708 474.202 553.756 474.202C558.557 474.202 562.444 478.084 562.444 482.88C562.444 487.676 558.557 491.559 553.756 491.559C548.955 491.559 545.069 487.676 545.069 482.88C545.069 482.561 545.087 482.241 545.124 481.921L537.296 474.101H503.342L502.41 473.197L502.391 473.178C502.382 473.169 502.364 473.151 502.337 473.124L502.016 472.804C501.843 472.639 501.623 472.42 501.349 472.164C500.672 471.507 499.703 470.575 498.532 469.451C496.201 467.204 493.073 464.207 489.909 461.193C486.736 458.178 483.535 455.173 481.039 452.898C479.786 451.756 478.744 450.824 477.975 450.176C477.747 449.984 477.555 449.828 477.399 449.7C477.335 449.7 477.271 449.691 477.198 449.691H477.098C477.052 449.691 476.997 449.691 476.942 449.682C476.22 449.664 475.241 449.646 474.08 449.637C471.766 449.618 468.803 449.627 465.868 449.655C462.942 449.673 460.052 449.71 457.894 449.737C456.815 449.755 455.928 449.764 455.297 449.774L454.904 449.783L454.575 449.792H454.318L453.002 449.81L398.116 397.081L389.593 396.167L386.969 393.326C385.195 391.398 386.868 388.329 389.447 388.767L400.722 390.686ZM553.765 486.982C551.488 486.982 549.65 485.137 549.65 482.871C549.65 480.606 551.488 478.76 553.765 478.76C556.042 478.76 557.881 480.606 557.881 482.871C557.881 485.137 556.042 486.982 553.765 486.982Z" fill="url(#paint23_linear_1439_568)"/>
<path fill-rule="evenodd" clip-rule="evenodd" d="M508.454 424.131H574.597C575.539 420.348 578.959 417.553 583.028 417.553C587.829 417.553 591.715 421.436 591.715 426.232C591.715 431.028 587.829 434.91 583.028 434.91C579.873 434.91 577.102 433.229 575.584 430.708L505.821 430.525L489.562 414.438H476.567C475.168 417.361 472.187 419.38 468.721 419.38C463.92 419.38 460.034 415.498 460.034 410.701C460.034 405.905 463.92 402.023 468.721 402.023C472.589 402.023 475.872 404.553 476.997 408.043H492.195L508.454 424.131ZM468.502 414.812C466.225 414.812 464.387 412.967 464.387 410.701C464.387 408.436 466.225 406.591 468.502 406.591C470.779 406.591 472.617 408.436 472.617 410.701C472.617 412.967 470.779 414.812 468.502 414.812ZM583.485 430.142C581.208 430.142 579.37 428.296 579.37 426.031C579.37 423.765 581.208 421.92 583.485 421.92C585.753 421.92 587.6 423.765 587.6 426.031C587.6 428.296 585.762 430.142 583.485 430.142Z" fill="url(#paint24_linear_1439_568)"/>
<path fill-rule="evenodd" clip-rule="evenodd" d="M397.851 513.018C397.851 514.498 397.211 515.832 396.187 516.754V572.389C399.808 573.54 402.423 576.792 402.423 580.62C402.423 585.416 398.326 589.299 393.279 589.299C388.231 589.299 384.134 585.416 384.134 580.62C384.134 577.002 386.466 573.896 389.785 572.599V517.028C388.578 516.115 387.792 514.653 387.792 513.018C387.792 510.241 390.041 507.993 392.821 507.993C395.601 507.993 397.851 510.241 397.851 513.018ZM393.279 584.731C390.526 584.731 388.706 582.675 388.706 580.62C388.706 578.564 390.526 576.509 393.279 576.509C396.031 576.509 397.851 578.564 397.851 580.62C397.851 582.675 396.031 584.731 393.279 584.731Z" fill="url(#paint25_linear_1439_568)"/>
<path fill-rule="evenodd" clip-rule="evenodd" d="M420.255 579.222V603.011C417.274 604.436 415.226 607.377 415.226 610.767C415.226 615.563 419.322 619.445 424.37 619.445C429.418 619.445 433.515 615.563 433.515 610.767C433.515 606.72 430.598 603.321 426.656 602.362V576.536L405.578 555.954C404.316 554.721 402.286 554.739 401.051 556.009C399.817 557.27 399.835 559.298 401.106 560.531L420.255 579.222ZM428.942 610.767C428.942 608.711 427.123 606.656 424.37 606.656C421.618 606.656 419.798 608.711 419.798 610.767C419.798 612.822 421.618 614.878 424.37 614.878C427.123 614.878 428.942 612.822 428.942 610.767Z" fill="url(#paint26_linear_1439_568)"/>
<path fill-rule="evenodd" clip-rule="evenodd" d="M450.88 591.299C450.844 590.523 450.816 589.737 450.78 588.961C450.716 587.435 450.652 585.909 450.569 584.384C450.542 583.781 450.505 583.169 450.469 582.566C449.801 582.392 449.124 582.228 448.448 582.063L448.054 581.972C447.798 581.908 447.533 581.844 447.277 581.78C445.439 581.305 443.638 580.565 442.037 579.496C440.675 578.583 439.404 577.514 438.252 576.335C427.525 565.327 416.808 554.31 406.081 543.302L405.258 542.443L405.267 541.274L405.258 538.113C405.221 527.315 405.185 516.517 405.148 505.728L398.637 499.26C396.022 496.666 393.407 494.071 390.8 491.477L389.886 490.554L389.895 489.275C389.886 485.301 389.868 481.327 389.859 477.353V477.289L389.813 462.207C388.597 461.284 387.819 459.832 387.819 458.196C387.819 455.419 390.069 453.172 392.849 453.172C395.629 453.172 397.878 455.419 397.878 458.196C397.878 459.676 397.238 461.01 396.214 461.933L396.196 469.488C396.187 472.247 396.177 475.006 396.168 477.764V477.828C396.159 481.218 396.15 484.607 396.132 488.005L410.352 502.311L411.239 503.188V504.458L411.211 512.579C411.184 521.751 411.147 530.923 411.12 540.104C421.49 550.902 431.869 561.7 442.239 572.508C443.116 573.421 444.086 574.243 445.128 574.956C446.344 575.787 447.588 576.609 448.941 577.304C449.298 577.486 449.664 577.669 450.021 577.843C450.999 578.336 451.968 578.82 452.956 579.286L454.081 579.597L454.209 581.077C454.181 581.442 454.145 581.808 454.126 582.173C454.081 582.913 454.035 583.644 453.998 584.384C453.916 585.909 453.852 587.435 453.788 588.961L453.77 589.299L453.733 590.084C453.715 590.44 453.706 590.806 453.688 591.171C458.287 591.619 461.881 595.319 461.881 599.804C461.881 604.6 457.784 608.483 452.736 608.483C447.689 608.483 443.592 604.6 443.592 599.804C443.574 595.611 446.71 592.112 450.88 591.299ZM452.718 603.915C449.966 603.915 448.146 601.86 448.146 599.804C448.146 597.749 449.966 595.693 452.718 595.693C455.471 595.693 457.29 597.749 457.29 599.804C457.29 601.86 455.471 603.915 452.718 603.915Z" fill="url(#paint27_linear_1439_568)"/>
<path fill-rule="evenodd" clip-rule="evenodd" d="M470.459 542.781V582.283C466.563 583.278 463.692 586.649 463.692 590.669C463.692 595.465 467.788 599.347 472.836 599.347C477.884 599.347 481.981 595.465 481.981 590.669C481.981 586.594 479.018 583.169 475.031 582.246V540.881L474.354 540.214C466.545 532.467 458.744 524.711 450.953 516.946C451.292 499.826 451.667 482.707 452.06 465.578L452.078 464.463L451.292 463.714C435.536 448.211 419.816 432.672 404.133 417.105L397.641 410.656C397.028 408.573 395.098 407.047 392.812 407.047C390.032 407.047 387.783 409.295 387.783 412.072C387.783 414.849 390.032 417.096 392.812 417.096C393.498 417.096 394.157 416.959 394.76 416.703L399.826 421.518C408.047 429.347 416.259 437.176 424.462 445.023L424.334 447.307C423.867 456.406 423.767 465.496 424.041 474.576L424.087 476.175L425.294 477.225C431.667 482.771 437.447 487.95 444.461 492.765L445.723 493.623C445.613 501.699 445.494 509.775 445.375 517.86L445.357 518.846L446.061 519.55C453.898 527.278 462.64 535.025 470.459 542.781ZM445.796 487.85C445.887 480.77 445.979 473.69 446.061 466.61C440.291 461.074 435.435 455.538 429.656 450.002C429.802 452.459 429.802 454.935 429.738 457.429C429.701 459.101 429.637 460.773 429.573 462.444C429.427 466.035 429.29 469.616 429.409 473.142C431.512 474.996 433.807 476.851 436.148 478.724C439.797 481.647 442.623 484.653 445.796 487.85ZM477.098 590.669C477.098 591.409 476.906 592.103 476.558 592.706C476.165 593.382 475.589 593.948 474.894 594.314C474.318 594.615 473.668 594.78 472.983 594.78C470.715 594.78 468.867 592.934 468.867 590.669C468.867 588.403 470.715 586.558 472.983 586.558C474.391 586.558 475.625 587.261 476.375 588.339C476.832 588.997 477.098 589.801 477.098 590.669Z" fill="url(#paint28_linear_1439_568)"/>
<path fill-rule="evenodd" clip-rule="evenodd" d="M424.498 525.104V502.567L405.532 483.62V451.199L389.282 436.701C389.09 436.728 388.898 436.737 388.706 436.737C386.182 436.737 384.134 434.691 384.134 432.17C384.134 429.648 386.182 427.602 388.706 427.602C391.066 427.602 393.004 429.383 393.251 431.667L411.934 448.33V480.971L430.899 499.918V524.876C434.539 526.018 437.172 529.279 437.172 533.116C437.172 537.912 433.076 541.794 428.028 541.794C422.98 541.794 418.883 537.912 418.883 533.116C418.883 529.507 421.206 526.42 424.498 525.104ZM428.028 537.227C425.275 537.227 423.456 535.171 423.456 533.116C423.456 531.06 425.275 529.005 428.028 529.005C430.78 529.005 432.6 531.06 432.6 533.116C432.6 535.171 430.78 537.227 428.028 537.227Z" fill="url(#paint29_linear_1439_568)"/>
<path d="M457.29 548.646C457.29 546.591 455.471 544.535 452.718 544.535C449.966 544.535 448.146 546.591 448.146 548.646C448.146 550.701 449.966 552.757 452.718 552.757C455.471 552.757 457.29 550.701 457.29 548.646ZM461.863 548.646C461.863 553.442 457.766 557.325 452.718 557.325C447.67 557.325 443.574 553.442 443.574 548.646C443.574 543.85 447.67 539.967 452.718 539.967C457.775 539.967 461.863 543.85 461.863 548.646Z" fill="url(#paint30_linear_1439_568)"/>
<path fill-rule="evenodd" clip-rule="evenodd" d="M472.416 487.969C472.452 487.11 472.489 486.26 472.516 485.402C468.959 483.995 466.435 480.532 466.435 476.476C466.435 471.178 470.733 466.884 476.037 466.884C481.341 466.884 485.639 471.178 485.639 476.476C485.639 481.09 482.374 484.945 478.03 485.858C478.058 486.562 478.085 487.265 478.113 487.969C478.131 488.325 478.14 488.672 478.158 489.028C478.213 490.362 478.259 491.696 478.286 493.03L478.259 494.437L477.29 495.268C477.143 495.405 477.006 495.533 476.86 495.67C476.412 496.09 475.964 496.501 475.525 496.921C473.595 498.73 471.657 500.53 469.709 502.32C469.709 502.33 469.709 502.348 469.709 502.357V518.189C477.591 526.082 485.401 534.048 493.128 542.105C493.402 542.388 493.667 542.671 493.942 542.946C494.161 543.183 494.39 543.411 494.609 543.649C499.319 544.005 503.022 547.742 503.022 552.3C503.022 557.096 498.926 560.979 493.878 560.979C488.83 560.979 484.733 557.096 484.733 552.3C484.733 549.468 486.16 546.956 488.364 545.376C480.289 537.638 472.297 529.818 464.396 521.916L463.317 520.838V502.393C463.317 501.9 463.317 501.407 463.317 500.923L463.308 499.516L464.368 498.547C466.654 496.51 468.968 494.5 471.282 492.491L472.288 491.614C472.315 490.755 472.342 489.887 472.379 489.028C472.388 488.681 472.406 488.325 472.416 487.969ZM476.037 481.501C473.257 481.501 471.007 479.253 471.007 476.476C471.007 473.699 473.257 471.452 476.037 471.452C478.817 471.452 481.066 473.699 481.066 476.476C481.066 479.253 478.817 481.501 476.037 481.501ZM491.775 548.637C491.912 548.573 492.049 548.518 492.186 548.472C492.698 548.29 493.256 548.189 493.869 548.189C496.621 548.189 498.441 550.245 498.441 552.3C498.441 554.356 496.621 556.411 493.869 556.411C491.116 556.411 489.296 554.356 489.296 552.3C489.296 550.829 490.238 549.359 491.775 548.637Z" fill="url(#paint31_linear_1439_568)"/>
<path d="M263.536 549.285C267.532 556.338 272.827 562.678 278.679 568.269C278.368 569.128 278.204 570.059 278.204 571.028C278.204 573.915 279.694 576.454 281.953 577.925C283.242 578.765 284.779 579.25 286.434 579.25C290.979 579.25 294.664 575.568 294.664 571.028C294.664 566.487 290.979 562.806 286.434 562.806C285.647 562.806 284.879 562.915 284.157 563.126C283.754 563.244 283.37 563.381 282.995 563.555C277.646 558.43 272.772 552.629 269.123 546.179C264.45 537.976 264.002 531.992 264.03 523.067C264.03 521.907 263.527 520.801 262.64 520.034L260.628 518.298C259.229 517.083 257.071 518.024 257.08 519.879C257.162 529.352 258.781 540.991 263.536 549.285Z" fill="url(#paint32_linear_1439_568)"/>
<path fill-rule="evenodd" clip-rule="evenodd" d="M184.563 424.852C184.902 424.268 185.249 423.683 185.597 423.089L185.478 423.281C185.167 423.802 184.865 424.331 184.563 424.852ZM187.005 420.705C188.084 418.859 189.172 417.023 190.242 415.16C189.355 416.713 188.45 418.247 187.545 419.782L187.005 420.705Z" fill="url(#paint33_linear_1439_568)"/>
<path fill-rule="evenodd" clip-rule="evenodd" d="M184.536 424.843C184.737 424.496 184.938 424.14 185.14 423.792C185.542 423.107 185.944 422.413 186.347 421.719C186.338 421.737 186.319 421.746 186.31 421.764L185.14 423.792L184.536 424.843Z" fill="url(#paint34_linear_1439_568)"/>
<path fill-rule="evenodd" clip-rule="evenodd" d="M259.915 331.223C259.915 332 259.677 332.713 259.265 333.297C258.406 348.791 270.687 366.751 287.037 375.448C303.388 384.145 309.688 392.65 313.886 401.045C316.913 407.093 317.955 412.51 318.293 416.283C318.421 417.727 318.458 418.932 318.458 419.837C318.458 422.212 318.312 428.872 318.458 432.453C318.458 432.462 318.458 432.48 318.458 432.499L318.44 432.626C318.44 432.782 318.431 432.937 318.403 433.092C318.367 433.302 318.321 433.503 318.257 433.695C318.065 434.243 317.717 434.728 317.278 435.093C316.72 435.55 316.016 435.824 315.239 435.824C314.974 435.824 314.718 435.787 314.471 435.723C314.343 435.696 314.224 435.659 314.105 435.614L313.959 435.55C313.584 435.385 313.246 435.148 312.953 434.855C312.386 434.28 312.038 433.494 312.038 432.617L312.048 432.435C311.91 428.625 312.057 421.838 312.057 419.828C312.057 418.567 311.984 416.557 311.545 414.036C311.042 411.195 310.063 407.705 308.161 403.905C304.586 396.77 302.693 391.015 284.029 381.084C265.365 371.154 251.776 350.709 252.882 332.63C252.699 332.192 252.59 331.717 252.59 331.214C252.59 329.195 254.227 327.56 256.248 327.56C258.269 327.56 259.915 329.205 259.915 331.223Z" fill="url(#paint35_linear_1439_568)"/>
<path d="M268.145 338.989C268.318 338.989 268.492 338.979 268.657 338.952C279.292 343.054 296.502 350.782 308.527 367.354C321.558 385.305 328.526 404.334 328.956 416.749C329.267 425.693 328.499 437.989 328.169 445.005C328.087 446.668 329.523 447.983 331.178 447.791L332.989 447.581C334.351 447.426 335.385 446.302 335.412 444.932C335.549 438.19 335.677 425.948 335.357 416.512C334.863 402.425 327.209 382.181 313.721 363.59C300.571 345.466 281.871 337.171 270.943 332.959C270.275 332.164 269.269 331.662 268.154 331.662C266.133 331.662 264.496 333.297 264.496 335.316C264.496 337.335 266.124 338.989 268.145 338.989Z" fill="url(#paint36_linear_1439_568)"/>
<path d="M152.676 258.186C151.168 257.026 150.18 255.18 150.18 253.116C150.18 249.58 153.042 246.721 156.581 246.721C160.12 246.721 162.982 249.58 162.982 253.116C162.982 255.18 162.004 257.017 160.477 258.186C163.321 276.649 170.06 294.609 186.383 312.633C193.397 320.38 201.847 327.98 205.504 330.748C209.162 333.507 213.972 337.399 215.563 338.532V366.267C217.74 367.418 219.221 369.702 219.221 372.333C219.221 374.206 218.471 375.914 217.246 377.147C216.002 378.408 214.274 379.184 212.363 379.184C208.577 379.184 205.504 376.115 205.504 372.333C205.504 369.702 206.986 367.418 209.162 366.267V340.816C206.876 338.989 204.233 337.244 201.911 335.654C197.22 332.42 190.745 326.985 181.637 316.936C164.299 297.788 157.112 278.576 154.13 259.036C153.609 258.807 153.125 258.524 152.676 258.186Z" fill="url(#paint37_linear_1439_568)"/>
<path fill-rule="evenodd" clip-rule="evenodd" d="M278.478 227.427C280.197 226.313 281.349 224.403 281.404 222.211C281.349 224.394 280.188 226.285 278.469 227.4C278.469 227.409 278.478 227.418 278.478 227.427Z" fill="url(#paint38_linear_1439_568)"/>
<path d="M310.082 196.166C300.745 182.664 283.791 178.818 270.659 181.494C252.215 185.267 242.668 201.008 239.806 214.747C235.078 237.376 249.865 253.764 256.723 259.967C263.582 266.17 278.368 271.314 288.409 271.414C293.429 271.469 297.782 271.816 300.992 271.204C301.623 271.085 302.217 270.966 302.757 270.848L303.891 270.583L304.906 270.327C305.774 270.099 306.607 269.852 306.625 269.852C317.992 266.362 326.505 258.688 331.992 251.764C333.565 249.791 335.357 246.721 333.071 245.808C330.785 244.894 327.584 246.264 325.298 248.548C323.012 250.832 315.184 259.419 303.818 262.717L303.269 262.872L303.04 262.936C300.077 263.795 278.222 269.441 259.905 253.764C254.227 248.904 243.308 233.849 247.103 215.661L247.222 215.131C249.755 203.894 258.68 191.945 272.251 189.168C282.748 187.021 295.889 188.857 302.738 198.76C309.588 208.663 308.609 223.8 301.248 231.154C293.74 237.586 286.79 236.681 281.23 232.086L280.965 231.867C280.59 231.538 280.215 231.09 279.868 230.561C279.31 229.711 278.825 228.624 278.451 227.4C280.206 226.258 281.386 224.303 281.386 222.055C281.386 218.52 278.524 215.661 274.985 215.661C271.446 215.661 268.584 218.52 268.584 222.055C268.584 222.494 268.712 222.092 268.721 223.344C268.73 224.595 269.05 227.08 270.422 229.821C271.793 232.561 275.744 237.129 280.974 240.326C286.205 243.524 297.618 244.803 306.616 236.215C315.065 228.149 319.171 209.302 310.082 196.166Z" fill="url(#paint39_linear_1439_568)"/>
<path fill-rule="evenodd" clip-rule="evenodd" d="M167.317 449.737C167.317 449.728 167.317 449.728 167.326 449.719C167.326 449.71 167.326 449.7 167.335 449.7C167.454 449.308 167.582 448.897 167.701 448.495L167.335 449.7L167.326 449.719L167.317 449.737Z" fill="url(#paint40_linear_1439_568)"/>
<path fill-rule="evenodd" clip-rule="evenodd" d="M167.692 448.485C167.655 448.622 167.609 448.75 167.573 448.887L167.692 448.485ZM170.792 441.954C171.752 440.455 172.886 438.994 174.139 437.797C173.645 438.263 173.179 438.775 172.73 439.304C172.026 440.127 171.377 441.031 170.792 441.954Z" fill="url(#paint41_linear_1439_568)"/>
<path d="M274.582 528.548C274.582 523.314 275.881 515.713 277.417 509.967C277.774 508.642 279.402 508.258 280.307 509.291C281.788 510.981 283.489 513.146 283.224 513.941C282.767 515.311 281.468 518.052 280.938 520.335C280.407 522.619 280.252 525.999 280.023 528.557C279.795 531.115 279.356 534.952 278.652 536.779C278.195 537.976 277.536 539.547 276.631 540.634C275.936 541.475 274.857 540.863 274.774 539.776C274.537 536.231 274.582 531.133 274.582 528.548Z" fill="url(#paint42_linear_1439_568)"/>
<path fill-rule="evenodd" clip-rule="evenodd" d="M208.284 459.539L208.056 459.558L207.791 459.567C207.992 459.567 208.193 459.548 208.385 459.521L208.284 459.539Z" fill="url(#paint43_linear_1439_568)"/>
<path fill-rule="evenodd" clip-rule="evenodd" d="M301.806 558.576C302.446 559.234 303.068 559.873 303.68 560.504L303.04 559.846C302.638 559.426 302.226 559.006 301.806 558.576Z" fill="url(#paint44_linear_1439_568)"/>
<path fill-rule="evenodd" clip-rule="evenodd" d="M254.51 226.715C254.538 227.208 254.574 227.71 254.629 228.204C254.583 227.756 254.547 227.308 254.528 226.87C254.519 226.815 254.51 226.76 254.51 226.715Z" fill="url(#paint45_linear_1439_568)"/>
<path fill-rule="evenodd" clip-rule="evenodd" d="M338.329 258.752V267.833C336.884 269.176 335.403 270.446 333.912 271.615C326.322 277.58 319.007 282.833 307.795 285.665C306.085 286.104 304.339 285.062 303.909 283.354C303.479 281.646 304.513 279.901 306.223 279.471C316.528 276.868 323.039 272.026 329.953 266.591C332.842 264.316 335.686 261.639 338.329 258.752Z" fill="url(#paint46_linear_1439_568)"/>
<path d="M222.879 426.232C223.025 426.012 222.797 425.775 222.422 425.318C222.056 424.861 221.507 424.405 218.764 423.034C215.106 421.207 215.563 418.923 216.478 417.096C218.307 414.356 219.45 415.269 220.364 413.442C221.279 411.615 219.45 409.788 219.45 409.788C219.45 409.788 211.961 407.504 209.391 403.393C206.821 399.282 210.305 396.998 214.878 392.431C219.45 387.863 226.766 381.468 227.68 377.814C228.594 374.16 229.509 365.938 228.594 361.37C227.68 356.803 228.018 344.936 232.481 337.618C236.943 330.301 241.168 324.683 245.302 320.873C245.539 320.654 245.933 320.837 245.914 321.165C245.731 324.189 245.274 337.801 246.792 344.342C249.828 357.396 252.608 360.786 257.866 367.774C261.899 373.128 266.59 377.394 270.669 380.564C274.976 383.907 280.014 389.672 280.728 395.18C281.532 401.365 274.326 407.97 276.155 416.192C277.984 424.414 281.139 422.906 281.395 427.858C281.633 432.407 274.637 435.376 276.759 444.703C278.981 454.451 290.284 456.068 299.145 466.464C307.119 475.819 307.238 502.065 300.836 517.595C296.41 528.329 290.64 536.003 288.061 539.721C287.76 540.15 287.092 539.83 287.248 539.328C288.4 535.61 291.097 528.365 291.692 517.595C292.606 501.151 289.863 491.102 286.205 484.707C282.547 478.313 274.317 469.177 271.574 467.35C268.83 465.523 265.173 462.782 259.686 461.869C254.199 460.955 238.653 463.696 233.167 462.782C227.68 461.869 220.812 457.347 221.279 450.906C221.654 445.717 223.263 443.68 223.83 441.716C224.342 439.916 223.602 435.367 221.965 435.367C219.679 435.367 217.85 433.997 217.392 432.17C216.935 430.343 217.85 428.515 219.221 428.059C220.593 427.602 220.593 427.602 221.507 427.145C222.422 426.688 222.733 426.451 222.879 426.232Z" fill="url(#paint47_linear_1439_568)"/>
<path fill-rule="evenodd" clip-rule="evenodd" d="M208.705 187.798C208.705 186.793 208.504 185.834 208.156 184.957C208.513 185.843 208.705 186.784 208.705 187.798Z" fill="url(#paint48_linear_1439_568)"/>
<path fill-rule="evenodd" clip-rule="evenodd" d="M315.559 571.749C315.404 572.069 315.266 572.398 315.157 572.745C315.148 572.782 315.129 572.827 315.12 572.864C315.239 572.48 315.385 572.106 315.559 571.749Z" fill="url(#paint49_linear_1439_568)"/>
<path fill-rule="evenodd" clip-rule="evenodd" d="M173.224 431.457C173.224 431.448 173.224 431.439 173.215 431.43C173.179 431.274 173.142 431.119 173.124 430.955C173.151 431.119 173.179 431.274 173.215 431.43C173.215 431.439 173.215 431.448 173.224 431.457Z" fill="url(#paint50_linear_1439_568)"/>
<path fill-rule="evenodd" clip-rule="evenodd" d="M207.791 459.576C207.992 459.576 208.193 459.558 208.385 459.53L208.284 459.539L208.056 459.558L207.791 459.576Z" fill="url(#paint51_linear_1439_568)"/>
<path fill-rule="evenodd" clip-rule="evenodd" d="M272.214 495.752C272.223 495.743 272.232 495.734 272.232 495.715L272.214 495.752ZM261.743 494.528V494.491C261.743 494.5 261.743 494.51 261.743 494.528C261.743 494.537 261.743 494.555 261.743 494.564C261.753 494.546 261.743 494.537 261.743 494.528ZM268.282 501.507C268.007 501.462 267.733 501.407 267.468 501.343C267.733 501.407 267.998 501.462 268.282 501.507Z" fill="url(#paint52_linear_1439_568)"/>
<path fill-rule="evenodd" clip-rule="evenodd" d="M323.67 493.514C323.615 493.614 323.57 493.715 323.506 493.815C323.561 493.715 323.615 493.614 323.67 493.514Z" fill="url(#paint53_linear_1439_568)"/>
<path d="M291.006 364.111C291.006 362.85 289.982 361.827 288.72 361.827C287.458 361.827 286.434 362.85 286.434 364.111C286.434 365.372 287.458 366.395 288.72 366.395C289.982 366.395 291.006 365.372 291.006 364.111ZM295.578 364.111C295.578 367.893 292.506 370.962 288.72 370.962C284.934 370.962 281.861 367.893 281.861 364.111C281.861 360.329 284.934 357.259 288.72 357.259C292.506 357.259 295.578 360.329 295.578 364.111Z" fill="url(#paint54_linear_1439_568)"/>
<path d="M160.239 300.163C160.239 298.902 159.215 297.879 157.953 297.879C156.691 297.879 155.667 298.902 155.667 300.163C155.667 301.424 156.691 302.447 157.953 302.447C159.215 302.447 160.239 301.424 160.239 300.163ZM164.811 300.163C164.811 303.945 161.739 307.015 157.953 307.015C154.167 307.015 151.094 303.945 151.094 300.163C151.094 296.381 154.167 293.312 157.953 293.312C161.739 293.312 164.811 296.381 164.811 300.163Z" fill="url(#paint55_linear_1439_568)"/>
<path fill-rule="evenodd" clip-rule="evenodd" d="M178.281 397.647C178.418 397.492 178.565 397.309 178.711 397.126L178.903 396.889L179.36 396.322C179.223 396.496 179.068 396.688 178.903 396.889C178.693 397.154 178.482 397.419 178.281 397.647Z" fill="url(#paint56_linear_1439_568)"/>
<path d="M312.743 561.509C314.544 563.646 316.4 565.72 318.312 567.693L318.888 568.269C319.985 567.684 321.229 567.364 322.555 567.364C326.853 567.364 330.328 570.836 330.328 575.13C330.328 579.423 326.853 582.895 322.555 582.895C319.985 582.895 317.708 581.652 316.291 579.725C315.349 578.437 314.782 576.847 314.782 575.13C314.782 573.86 315.084 572.663 315.623 571.612L315.111 571.192C311.042 567.803 307.338 564.213 303.68 560.495L303.04 559.837C299.712 556.42 295.926 552.538 293.265 548.281C292.46 547.002 293.018 545.348 294.371 544.672L296.941 543.393C298.23 542.745 299.803 543.21 300.553 544.453C302.949 548.418 305.838 552.894 308.5 556.283C309.88 558.046 311.298 559.791 312.743 561.509Z" fill="url(#paint57_linear_1439_568)"/>
<path d="M252.8 535.372C253.266 535.966 253.413 536.733 253.312 537.473C252.809 541.182 253.065 546.773 254.163 553.369C255.379 560.705 257.939 568.031 262.32 573.038C276.119 588.796 289.836 590.148 307.302 591.875L307.695 591.911C308.015 591.948 308.335 591.793 308.545 591.546C309.716 590.166 311.462 589.299 313.41 589.299C316.949 589.299 319.811 592.167 319.811 595.693C319.811 599.229 316.949 602.088 313.41 602.088C311.005 602.088 308.902 600.754 307.814 598.799C307.658 598.516 307.375 598.306 307.055 598.279L306.369 598.215C288.994 596.506 273 594.935 257.51 577.258C252.005 570.973 249.161 562.322 247.853 554.429C246.545 546.527 246.179 537.711 247.112 533.134C247.835 529.562 251.291 533.454 252.8 535.372Z" fill="url(#paint58_linear_1439_568)"/>
<path fill-rule="evenodd" clip-rule="evenodd" d="M266.27 500.923C266.087 500.85 265.913 500.758 265.74 500.667C265.904 500.758 266.087 500.85 266.27 500.923ZM272.68 494.665C272.68 494.647 272.689 494.619 272.689 494.592C272.689 494.619 272.689 494.638 272.68 494.665Z" fill="url(#paint59_linear_1439_568)"/>
<path fill-rule="evenodd" clip-rule="evenodd" d="M263.838 489.302C263.929 489.211 264.03 489.12 264.13 489.028C264.03 489.111 263.938 489.202 263.838 489.302ZM272.708 494.455V494.4C272.717 494.418 272.708 494.437 272.708 494.455Z" fill="url(#paint60_linear_1439_568)"/>
<path fill-rule="evenodd" clip-rule="evenodd" d="M261.743 494.528V494.491C261.743 494.5 261.743 494.51 261.743 494.528C261.743 494.537 261.743 494.555 261.743 494.564V494.528ZM265.429 500.502C265.474 500.53 265.511 500.548 265.557 500.576C265.602 500.603 265.657 500.63 265.703 500.658C265.612 500.603 265.52 500.557 265.429 500.502ZM265.73 500.667C265.904 500.758 266.078 500.84 266.261 500.923C266.087 500.85 265.904 500.758 265.73 500.667ZM263.719 489.43C263.755 489.394 263.792 489.357 263.828 489.321C263.828 489.33 263.819 489.33 263.81 489.339C263.81 489.348 263.801 489.348 263.792 489.357C263.764 489.376 263.737 489.403 263.719 489.43ZM272.15 495.834C272.141 495.843 272.132 495.853 272.123 495.871C272.15 495.834 272.187 495.798 272.214 495.752C272.187 495.779 272.168 495.807 272.15 495.834ZM272.68 494.683V494.665C272.68 494.647 272.689 494.619 272.689 494.592C272.689 494.574 272.699 494.555 272.699 494.537C272.699 494.546 272.699 494.564 272.689 494.574V494.592C272.689 494.61 272.68 494.638 272.68 494.665C272.68 494.674 272.68 494.674 272.68 494.683ZM272.708 494.491C272.708 494.482 272.708 494.482 272.708 494.473V494.491Z" fill="url(#paint61_linear_1439_568)"/>
<path fill-rule="evenodd" clip-rule="evenodd" d="M199.048 430.142L199.204 429.913C199.341 429.721 199.497 429.53 199.661 429.356C199.497 429.53 199.35 429.721 199.204 429.913C199.149 429.986 199.094 430.059 199.048 430.142ZM183.439 513.539C183.494 513.511 183.548 513.484 183.603 513.447C183.676 513.411 183.75 513.365 183.832 513.329L183.603 513.447L183.439 513.539Z" fill="url(#paint62_linear_1439_568)"/>
<path fill-rule="evenodd" clip-rule="evenodd" d="M209.162 433.312V433.083ZM209.162 433.312V433.376L209.153 433.494" fill="url(#paint63_linear_1439_568)"/>
<path d="M209.162 433.312V433.083C209.162 430.059 206.702 427.602 203.676 427.602C202.094 427.602 200.658 428.278 199.661 429.347C199.497 429.52 199.35 429.712 199.204 429.904L199.048 430.132C198.509 430.982 198.189 431.996 198.189 433.074C198.189 433.403 198.216 433.723 198.271 434.033C198.353 434.472 198.481 434.892 198.655 435.285C197.265 436.427 195.866 437.541 194.467 438.656L194.101 438.939L193.653 439.295C190.718 441.634 187.755 444 185.012 446.53C179.47 451.637 174.605 457.557 171.843 465.861C164.692 487.338 171.688 503.252 180.348 516.672C179.772 517.759 179.443 519.002 179.443 520.308C179.443 524.602 182.917 528.073 187.215 528.073C191.513 528.073 194.988 524.602 194.988 520.308C194.988 516.014 191.513 512.543 187.215 512.543C186.603 512.543 186.008 512.616 185.432 512.744C177.385 500.174 171.715 486.461 177.906 467.871C180.22 460.937 184.271 455.894 189.346 451.217C191.897 448.86 194.686 446.631 197.64 444.283L198.033 443.963C200.256 442.2 202.569 440.355 204.883 438.4C205.998 438.153 206.986 437.56 207.727 436.746C208.083 436.354 208.385 435.915 208.614 435.44C208.678 435.303 208.742 435.166 208.797 435.02L208.915 434.682L208.925 434.645L208.961 434.517L209.034 434.225L209.089 433.978C209.117 433.805 209.144 433.631 209.153 433.458L209.162 433.339V433.312Z" fill="url(#paint64_linear_1439_568)"/>
<path d="M218.801 469.497C217.712 468.775 216.268 468.912 215.344 469.835L199.405 485.731C198.472 485.356 197.448 485.146 196.36 485.146C194.613 485.146 193.004 485.685 191.705 486.598C189.812 487.932 188.587 490.061 188.587 492.454C188.587 496.492 192.062 499.762 196.36 499.762C200.649 499.762 204.133 496.492 204.133 492.454C204.133 491.184 203.785 489.988 203.173 488.937L220.639 473.471C221.535 472.676 221.434 471.251 220.438 470.584L218.801 469.497ZM199.112 491.084C199.405 491.522 199.561 492.007 199.561 492.463C199.561 493.021 199.332 493.614 198.902 494.117C198.573 494.5 198.116 494.82 197.549 495.012C197.192 495.131 196.799 495.204 196.351 495.204C194.321 495.204 193.15 493.715 193.15 492.463C193.15 491.212 194.321 489.723 196.351 489.723C197.649 489.723 198.591 490.326 199.112 491.084Z" fill="url(#paint65_linear_1439_568)"/>
<path d="M211.448 455.922C211.448 457.648 210.251 459.083 208.65 459.475C205.651 461.814 201.902 465.295 198.18 468.994C196.25 470.904 194.366 472.84 192.638 474.658C191.513 475.846 190.453 476.97 189.483 478.011L189.502 478.303C189.502 480.569 187.654 482.414 185.386 482.414C183.119 482.414 181.271 480.569 181.271 478.303C181.271 477.673 181.409 477.088 181.665 476.559C181.802 476.266 181.976 475.992 182.177 475.746C182.671 475.124 183.347 474.649 184.115 474.403C186.694 471.589 190.114 467.99 193.671 464.463C195.299 462.846 196.982 461.22 198.637 459.685C199.707 458.699 200.758 457.74 201.792 456.853C202.661 456.104 203.511 455.392 204.334 454.743C204.828 453.309 206.181 452.277 207.791 452.277C208.129 452.277 208.449 452.322 208.76 452.405C209.437 452.587 210.022 452.953 210.479 453.446C210.79 453.784 211.037 454.186 211.211 454.624C211.366 455.017 211.448 455.465 211.448 455.922Z" fill="url(#paint66_linear_1439_568)"/>
<path fill-rule="evenodd" clip-rule="evenodd" d="M338.329 122.26V131.304C325.152 117.282 312.98 111.883 300.096 109.507C299.62 109.882 299.071 110.183 298.486 110.366C298.002 110.521 297.48 110.604 296.95 110.604C294.17 110.604 291.92 108.356 291.92 105.579C291.92 102.802 294.17 100.555 296.95 100.555C298.889 100.555 300.571 101.651 301.413 103.25C314.05 105.597 325.975 110.677 338.329 122.26Z" fill="url(#paint67_linear_1439_568)"/>
<path d="M287.522 167.27C259.622 163.781 232.252 181.723 226.391 209.056L226.372 209.12L226.363 209.184C220.886 240.582 233.789 269.075 262.96 282.084C272.808 286.698 285.135 287.291 294.335 286.926C296.1 286.853 297.48 285.373 297.407 283.61C297.343 281.847 295.853 280.476 294.088 280.54C285.126 280.887 274.043 280.23 265.63 276.274L265.602 276.265L265.575 276.247L264.359 275.689C239.065 263.795 227.726 238.755 232.664 210.335C237.812 186.546 261.881 170.523 286.735 173.629C307.219 176.187 323.99 193.644 324.173 214.336V214.976C324.045 228.496 316.154 244.748 300.8 249.626C294.188 251.727 286.388 251.7 279.438 249.471C272.708 247.315 266.992 243.186 263.792 237.211L263.49 236.626C260.811 231.264 260.18 224.193 261.625 217.835C263.079 211.44 266.453 206.461 271.053 204.442C276.256 202.168 280.801 202.35 283.983 203.364C283.8 203.931 283.709 204.543 283.709 205.173C283.709 206.626 284.23 207.95 285.099 208.983C285.62 209.604 286.26 210.115 286.992 210.481C287.796 210.883 288.702 211.111 289.653 211.111C292.935 211.111 295.597 208.453 295.597 205.173C295.597 202.095 293.246 199.555 290.238 199.263C285.455 196.193 277.362 194.704 268.483 198.587C261.359 201.711 257.098 208.882 255.388 216.419C254.62 219.781 254.327 223.344 254.538 226.879C254.794 231.3 255.854 235.667 257.766 239.486C261.844 247.635 269.288 252.924 277.49 255.555C285.666 258.177 294.838 258.241 302.757 255.719C321.558 249.745 330.446 230.369 330.593 215.003V214.272C330.355 190.118 310.932 170.194 287.522 167.27Z" fill="url(#paint68_linear_1439_568)"/>
<path fill-rule="evenodd" clip-rule="evenodd" d="M205.276 330.191C205.175 330.118 205.066 330.045 204.956 329.972C204.627 329.734 204.288 329.488 203.941 329.232C203.456 328.876 202.944 328.483 202.414 328.063C202.944 328.483 203.456 328.867 203.941 329.232C204.288 329.497 204.627 329.734 204.956 329.972L205.276 330.191Z" fill="url(#paint69_linear_1439_568)"/>
<path fill-rule="evenodd" clip-rule="evenodd" d="M202.404 328.063C202.935 328.483 203.447 328.867 203.932 329.232C204.279 329.497 204.617 329.734 204.947 329.972L205.267 330.191L205.303 330.219C205.294 330.209 205.276 330.2 205.267 330.191C205.166 330.118 205.056 330.045 204.947 329.972C204.617 329.734 204.279 329.488 203.932 329.232C203.447 328.876 202.944 328.483 202.404 328.063ZM153.463 258.698C153.335 258.624 153.198 258.542 153.079 258.46C152.942 258.369 152.814 258.277 152.686 258.177C152.814 258.277 152.951 258.369 153.079 258.46C153.198 258.551 153.326 258.624 153.463 258.698Z" fill="url(#paint70_linear_1439_568)"/>
<path d="M155.036 329.159C166.421 342.807 181.665 348.69 190.571 351.705C190.471 352.171 190.416 352.655 190.416 353.148C190.416 355.113 191.239 356.876 192.565 358.127C193.79 359.287 195.455 360 197.274 360C201.06 360 204.133 356.93 204.133 353.148C204.133 349.366 201.06 346.297 197.274 346.297C195.391 346.297 193.681 347.055 192.446 348.288C184.39 345.301 170.371 337.545 159.965 325.066C148.223 310.989 144.995 291.886 146.303 274.054C146.476 271.661 147.857 268.372 146.989 266.819C146.12 265.266 140.67 267.943 140.542 269.084C138.164 290.671 140.587 311.838 155.036 329.159Z" fill="url(#paint71_linear_1439_568)"/>
<path fill-rule="evenodd" clip-rule="evenodd" d="M165.771 459.868C165.771 459.886 165.771 459.905 165.771 459.923V459.868ZM165.753 459.43C165.753 459.421 165.753 459.402 165.753 459.384C165.753 459.366 165.753 459.338 165.753 459.32C165.753 459.311 165.753 459.293 165.753 459.274C165.753 459.256 165.753 459.238 165.753 459.22V459.064C165.753 459.11 165.753 459.146 165.762 459.192C165.762 459.201 165.762 459.21 165.762 459.22C165.762 459.238 165.762 459.256 165.762 459.274C165.762 459.293 165.762 459.311 165.762 459.32V459.384L165.753 459.43ZM165.735 458.946C165.735 458.936 165.735 458.936 165.735 458.927V458.946ZM185.149 423.792L184.545 424.843C184.737 424.496 184.938 424.14 185.149 423.792ZM148.763 337.518C148.753 337.5 148.744 337.481 148.726 337.454C148.708 337.426 148.699 337.399 148.68 337.372C148.671 337.353 148.662 337.335 148.653 337.326C148.635 337.299 148.616 337.271 148.589 337.244L148.717 337.454L148.763 337.518ZM165.735 458.863V458.9C165.735 458.891 165.735 458.882 165.735 458.863Z" fill="url(#paint72_linear_1439_568)"/>
<path d="M157.496 369.592C154.588 371.511 149.073 374.708 144.693 378.728C141.31 381.834 138.42 385.259 136.189 388.037C137.487 389.425 138.292 391.289 138.292 393.344C138.292 397.638 134.817 401.109 130.519 401.109C126.221 401.109 122.746 397.638 122.746 393.344C122.746 389.051 126.221 385.579 130.519 385.579C130.867 385.579 131.196 385.597 131.525 385.643C133.939 382.464 136.664 378.664 140.578 375.073C141.804 373.95 143.029 372.78 144.245 371.638C147.446 368.606 150.5 365.71 152.923 364.111L157.496 369.592Z" fill="url(#paint73_linear_1439_568)"/>
<path fill-rule="evenodd" clip-rule="evenodd" d="M179.196 396.542C179.104 396.66 179.004 396.779 178.912 396.898L179.086 396.679C179.186 396.56 179.278 396.441 179.369 396.331L179.196 396.542Z" fill="url(#paint74_linear_1439_568)"/>
<path fill-rule="evenodd" clip-rule="evenodd" d="M261.743 494.482V494.555C261.743 494.583 261.743 494.61 261.743 494.638C261.753 494.829 261.771 495.021 261.798 495.213C243.134 509.008 225.815 531.892 233.917 565.382C238.068 582.529 248.319 594.561 259.256 602.38C269.964 610.036 281.935 613.8 289.479 614.393C290.567 615.8 292.268 616.705 294.188 616.705C295.578 616.705 296.859 616.23 297.874 615.426C298.431 614.978 298.916 614.439 299.282 613.827C299.821 612.932 300.132 611.89 300.132 610.767C300.132 607.487 297.471 604.829 294.188 604.829C293.685 604.829 293.192 604.893 292.734 605.011C291.097 605.423 289.735 606.51 288.958 607.953C282.675 607.314 272.561 604.025 262.987 597.182C253.029 590.066 243.857 579.25 240.135 563.884C232.902 533.965 247.972 513.447 265.41 500.502C265.511 500.557 265.612 500.621 265.721 500.676C265.895 500.767 266.069 500.85 266.252 500.932C266.526 501.051 266.81 501.16 267.102 501.252C267.221 501.288 267.331 501.315 267.45 501.352C268.108 501.516 268.794 501.617 269.498 501.617C273.787 501.617 277.271 498.346 277.271 494.309C277.271 490.271 273.787 487 269.498 487C267.569 487 265.813 487.658 264.459 488.745C264.222 488.937 263.993 489.147 263.774 489.366L263.81 489.33C263.774 489.366 263.737 489.403 263.7 489.439C263.627 489.513 263.554 489.595 263.49 489.677C263.481 489.686 263.463 489.704 263.453 489.714L263.426 489.741C263.17 490.042 262.941 490.353 262.74 490.691C262.091 491.76 261.725 492.984 261.725 494.3C261.743 494.354 261.743 494.418 261.743 494.482ZM272.123 495.871C272.132 495.862 272.141 495.853 272.15 495.834C271.61 496.51 270.714 497.031 269.516 497.031C267.486 497.031 266.316 495.542 266.316 494.29C266.316 493.039 267.486 491.55 269.516 491.55C270.824 491.55 271.775 492.171 272.287 492.938C272.571 493.368 272.717 493.843 272.717 494.29C272.717 494.3 272.717 494.309 272.717 494.327V494.345C272.717 494.373 272.717 494.391 272.717 494.418V494.437C272.717 494.455 272.717 494.464 272.717 494.473C272.717 494.491 272.717 494.5 272.717 494.519V494.528C272.717 494.546 272.708 494.574 272.708 494.592C272.708 494.61 272.699 494.638 272.699 494.665C272.699 494.674 272.699 494.674 272.699 494.683V494.665C272.68 494.756 272.653 494.857 272.625 494.948C272.543 495.222 272.406 495.496 272.223 495.752C272.177 495.789 272.15 495.834 272.123 495.871Z" fill="url(#paint75_linear_1439_568)"/>
<path d="M327.721 86.0659C319.72 82.7498 310.95 80.9135 301.751 80.9135C273.174 80.9135 248.74 98.6088 238.809 123.622C197.457 128.929 165.497 164.228 165.497 206.982C165.497 208.754 165.552 210.508 165.671 212.244C137.753 226.495 118.631 255.5 118.631 288.972C118.631 305.992 123.578 321.86 132.11 335.216C114.855 350.6 104 372.991 104 397.912C104 427.995 119.829 454.396 143.614 469.232C142.371 474.951 141.721 480.889 141.721 486.982C141.721 528.904 172.63 563.628 212.921 569.648C217.548 608.757 250.852 639.086 291.235 639.086C301.038 639.086 310.429 637.296 319.089 634.025C338.494 626.708 351.131 607.898 351.131 587.179V121.438C351.131 106.027 341.969 91.9856 327.721 86.0659ZM338.329 587.179C338.329 602.737 328.828 616.677 314.562 622.058C307.329 624.799 299.465 626.297 291.235 626.297C257.418 626.297 229.509 600.891 225.632 568.15L224.489 558.448L224.425 558.439C223.684 548.207 223.794 535.866 226.994 526.264C233.002 508.268 244.643 493.085 261.542 480.715C263.325 479.409 263.691 476.769 261.899 475.481C259.832 474.001 257.089 472.904 253.349 473.343C251.95 473.507 250.688 474.238 249.673 475.216C234.73 489.558 223.483 504.138 216.935 524.437C213.835 536.094 213.113 546.024 213.625 556.813C209.912 556.192 206.291 555.278 202.798 554.109C202.459 549.322 202.953 539.511 205.889 526.027C207.58 518.234 211.878 507.838 217.85 498.858C223.108 490.947 229.847 484.123 236.093 478.212C237.117 477.235 236.706 475.517 235.352 475.115L231.201 473.9C230.862 473.8 230.506 473.9 230.268 474.165C225.897 479.043 219.294 487.22 213.351 496.154C207.288 505.271 201.591 515.658 199.634 524.675C197.119 536.231 196.268 545.467 196.314 551.569C171.679 540.479 154.524 515.713 154.524 486.982C154.524 481.802 155.072 476.769 156.124 471.945L158.035 463.148L150.674 458.562C150.857 454.204 151.78 441.908 155.914 431.019C157.642 426.478 161.391 420.102 165.689 413.807C169.969 407.55 174.605 401.639 177.943 398.04C178.199 397.766 178.565 397.318 178.903 396.898C178.967 396.825 179.022 396.752 179.077 396.679C179.177 396.56 179.269 396.441 179.36 396.331L179.9 395.628C182.68 395.628 184.929 393.381 184.929 390.604C184.929 388.941 184.115 387.461 182.872 386.547C182.04 385.935 181.006 385.579 179.9 385.579C177.12 385.579 174.87 387.826 174.87 390.604C174.87 390.942 174.907 391.27 174.971 391.581L174.358 392.33C173.864 392.951 173.499 393.417 173.307 393.637L173.252 393.691C169.63 397.592 164.793 403.777 160.404 410.208C157.871 413.917 155.42 417.8 153.417 421.436C151.972 424.048 150.765 426.542 149.933 428.753C146.403 438.035 145.041 448.12 144.529 454.305C140.944 451.537 137.634 448.44 134.643 445.051C134.753 435.376 136.116 423.692 140.679 414.913C145.297 406.006 153.637 397.958 157.185 395.18C162.095 396.925 167.555 393.161 167.555 387.863C167.555 383.569 164.08 380.098 159.782 380.098C154.862 380.098 151.177 384.793 152.183 389.526C152.274 389.937 152.393 390.33 152.548 390.704C148.177 394.303 139.856 402.589 134.991 411.971C131.04 419.59 129.266 428.799 128.59 437.167C121.137 425.903 116.802 412.41 116.802 397.912C116.802 376.782 125.993 357.817 140.633 344.762L143.889 341.857C146.897 346.671 150.719 350.938 154.569 355.131C161.4 362.412 172.584 370.168 179.196 372.497C194.531 377.896 193.196 390.942 188.834 402.443C185.981 410.583 182.954 416.091 178.226 423.244C175.245 423.984 173.041 426.679 173.041 429.886C173.041 430.407 173.105 430.927 173.215 431.439L173.224 431.466C173.27 431.658 173.325 431.859 173.389 432.042C171.45 433.293 169.667 434.855 168.076 436.609C165.342 439.642 163.202 443.26 161.903 446.914C159.535 457.146 160.111 458.361 161.903 461.86C162.415 462.846 165.433 464.144 165.726 463.23C165.918 462.636 165.863 461.531 165.799 460.279C165.799 460.252 165.79 460.215 165.79 460.188V460.087C165.781 460.06 165.781 460.014 165.781 459.978V459.923L165.771 459.868C165.771 459.74 165.762 459.622 165.753 459.494V459.32L165.744 459.274V459.064L165.735 459.037V458.946C165.735 458.699 165.726 458.452 165.726 458.206C165.726 455.026 166.494 452.487 167.317 449.737C167.317 449.737 167.326 449.728 167.326 449.719C167.326 449.71 167.326 449.7 167.326 449.7L167.692 448.485C169.073 443.817 172.273 438.455 176.589 435.888C177.568 436.427 178.693 436.737 179.9 436.737C183.686 436.737 186.758 433.668 186.758 429.886C186.758 427.903 185.917 426.113 184.563 424.861L184.536 424.843C184.737 424.496 184.938 424.14 185.149 423.792L186.319 421.764C193.79 408.865 202.514 393.801 197.649 381.121C195.665 374.507 190.562 371.072 185.505 367.674C184.691 367.126 183.887 366.577 183.082 366.02L184.966 359.443C185.423 357.817 184.326 356.163 182.643 355.971L180.686 355.743C179.223 355.569 177.888 356.574 177.65 358.027L176.836 363.124C166.421 357.296 157.386 349.101 150.125 339.701C149.659 339.089 149.202 338.313 148.763 337.518L148.726 337.454L148.598 337.244L142.901 328.337C135.64 316.972 131.434 303.479 131.434 288.972C131.434 263.21 144.73 240.536 164.894 227.445C164.775 240.546 167.39 253.901 170.92 266.152C179.269 292.005 199.981 311.966 222.797 326.126C224.095 326.93 225.805 326.5 226.61 325.203C227.854 323.184 228.86 321.421 229.18 319.11C229.308 318.132 228.75 317.219 227.899 316.726C207.251 304.576 189.337 286.031 181.564 262.918C177.531 250.01 174.477 235.494 175.364 221.663L179.022 219.79L178.446 211.367C178.345 209.951 178.299 208.489 178.299 206.982C178.299 170.742 205.395 140.805 240.437 136.311L247.926 135.342L250.706 128.335C258.771 108.027 278.597 93.7031 301.751 93.7031C309.231 93.7031 316.336 95.1922 322.82 97.878C332.166 101.77 338.329 111.079 338.329 121.438V139.736C329.569 132.008 319.601 126.216 310.584 122.114C299.986 117.282 290.338 114.614 285.062 113.947C283.654 111.919 281.313 110.604 278.661 110.604C274.363 110.604 270.888 114.075 270.888 118.369C270.888 120.917 272.113 123.174 274.006 124.581C275.305 125.558 276.914 126.134 278.661 126.134C281.852 126.134 284.605 124.206 285.794 121.456C288.299 121.913 291.811 122.808 295.944 124.188C299.437 125.348 303.379 126.865 307.548 128.765C317.918 133.488 329.313 140.431 338.329 149.858V166.905C318.568 136.649 279.694 127.495 247.944 138.467L247.176 138.731C219.358 148.662 204.828 171.729 200.411 180.051C196.351 180.325 193.159 183.687 193.159 187.798C193.159 192.082 196.643 195.563 200.932 195.563C205.221 195.563 208.705 192.082 208.705 187.798C208.705 186.793 208.504 185.834 208.156 184.957C211.659 178.151 224.809 156.418 250.249 147.337L250.944 147.09C280.362 136.932 315.824 146.305 332.321 174.57C334.818 178.854 336.829 183.404 338.329 188.127V228.998C337.597 231.273 336.738 233.511 335.75 235.722C335.54 236.215 335.403 236.718 335.366 237.22C335.33 237.659 335.357 238.088 335.449 238.508C335.549 239.002 335.732 239.477 335.997 239.915C336.464 240.701 337.168 241.359 338.064 241.761C338.155 241.797 338.238 241.834 338.329 241.861V280.705C326.542 290.37 310.027 295.595 288.491 295.595C269.306 295.595 251.081 286.844 237.611 273.716C224.114 260.552 215.792 243.396 215.792 227.08C215.792 188.41 241.488 159.478 279.804 159.478C285.867 159.478 290.558 160.501 294.389 161.981C295.212 162.301 295.77 163.059 296.154 163.863C297.115 165.864 299.154 167.243 301.522 167.243C304.805 167.243 307.466 164.585 307.466 161.305C307.466 160.684 307.375 160.081 307.192 159.515C307.1 159.213 306.982 158.921 306.835 158.638C306.725 158.418 306.607 158.208 306.469 157.998C305.573 156.673 304.165 155.723 302.519 155.449C302.153 155.385 301.797 155.294 301.467 155.13C296.09 152.453 289.214 150.343 279.804 150.343C235.8 150.343 206.648 184.034 206.648 227.08C206.648 241.961 212.427 256.88 221.873 269.569C222.696 270.683 222.614 272.236 221.626 273.223L218.709 276.137C217.639 277.206 217.639 278.942 218.709 280.01L220.648 281.947C221.718 283.016 223.455 283.016 224.525 281.947L226.756 279.727C227.845 278.631 229.619 278.658 230.716 279.746C230.807 279.837 230.899 279.928 230.99 280.02C231.073 280.102 231.146 280.175 231.228 280.248C246.106 294.755 266.517 304.731 288.491 304.731C288.985 304.731 289.369 305.178 289.278 305.672L288.354 310.824C288.089 312.313 289.086 313.738 290.576 314.003L294.179 314.643C295.67 314.908 297.096 313.921 297.361 312.432L298.66 305.178C305.39 307.764 312.587 311.93 318.33 316.515C325.582 322.316 333.446 333.142 338.329 341.428V366.532C324.1 342.067 300.617 322.463 273.75 314.232C271.199 313.218 268.629 312.249 266.051 311.336C260.418 309.317 255.589 307.764 249.023 305.845C243.473 304.228 237.273 300.994 231.393 297.934C230.314 297.368 229.235 296.81 228.183 296.271C206.419 285.09 190.581 254.486 190.489 238.271C190.407 224.504 192.044 217.817 193.095 213.523C193.278 212.765 193.452 212.08 193.58 211.44C194.988 210.664 195.948 209.156 195.948 207.439C195.948 204.917 193.9 202.871 191.376 202.871C188.852 202.871 186.804 204.917 186.804 207.439C186.804 208.215 186.987 208.946 187.325 209.586C185.899 214.418 185.469 218.611 184.49 236.215C183.521 253.819 195.473 276.868 206.419 288.287C217.365 299.706 230.195 307.928 242.54 313.318C250.221 316.662 255.982 318.626 261.112 320.371C264.222 321.421 267.102 322.408 270.038 323.568C304.485 334.75 329.395 362.43 338.329 395.655V470.876C337.552 469.999 336.774 469.122 336.006 468.254C335.22 467.359 334.433 466.464 333.656 465.56C332.659 464.418 331.681 463.276 330.702 462.115C326.313 456.899 321.933 451.217 318.549 445.928L318.348 445.599C318.403 445.242 318.44 444.868 318.44 444.502C318.44 440.72 315.367 437.651 311.581 437.651C309.313 437.651 307.311 438.747 306.058 440.437C305.217 441.579 304.723 442.977 304.723 444.502C304.723 447.846 307.128 450.632 310.301 451.235L310.584 451.592C313.73 455.319 316.922 458.525 320.077 461.695L320.259 461.878C321.933 463.568 323.606 465.249 325.261 467.003C326.661 468.474 328.06 469.945 329.459 471.415C332.413 474.512 335.357 477.6 338.329 480.679V515.594C338.274 515.539 338.21 515.485 338.155 515.43C337.643 514.936 337.104 514.407 336.546 513.849C335.037 512.324 333.437 510.606 332.156 508.907C329.541 505.426 328.179 501.526 327.264 496.419C327.648 495.853 327.959 495.24 328.169 494.583C328.389 493.907 328.499 493.194 328.499 492.463C328.499 488.425 325.024 485.155 320.726 485.155C316.428 485.155 312.953 488.425 312.953 492.463C312.953 496.501 316.428 499.772 320.726 499.772H320.781L321.092 499.762L321.192 499.753L321.476 499.735C321.704 499.717 321.942 499.689 322.171 499.644C324.036 506.459 327.767 516.151 334.9 522.153C336.079 522.153 337.268 521.486 338.329 520.619V537.291C336.82 535.756 335.293 534.34 333.793 532.869C330.675 529.864 327.474 527.013 324.32 524.127C321.595 521.651 318.833 519.221 316.035 516.837C315.221 516.142 313.995 516.252 313.31 517.074C312.761 517.732 312.203 518.39 311.654 519.047C310.987 519.851 311.087 521.039 311.883 521.715C314.617 524.035 317.342 526.429 320.003 528.859C323.103 531.682 326.075 534.641 328.901 537.665C331.279 540.232 333.537 543.037 335.174 545.695C335.586 546.371 336.473 546.654 337.168 546.271C337.552 546.061 337.945 545.841 338.329 545.631V560.851C337.753 559.015 336.162 557.635 334.214 557.37C333.053 556.192 331.974 555.004 330.968 553.734C324.64 545.896 317.031 536.898 309.652 528.987C308.957 528.247 307.768 528.219 307.201 529.069C306.918 529.489 306.671 529.928 306.451 530.384C305.244 532.86 306.287 535.774 308.298 537.656C314.727 543.676 320.662 549.98 326.213 556.868C327.118 558.001 327.84 559.608 328.517 561.098L328.608 561.308C328.535 561.646 328.499 561.993 328.499 562.349C328.499 565.126 330.748 567.374 333.528 567.374C335.778 567.374 337.689 565.894 338.329 563.847V587.179ZM338.329 324.92C333.995 319.083 329.002 313.355 324.036 309.381C320.525 306.576 316.766 304.137 313.364 302.173C322.765 300.072 331.105 296.683 338.329 292.005V324.92ZM281.861 118.369C281.861 120.132 280.426 121.566 278.661 121.566C276.896 121.566 275.46 120.132 275.46 118.369C275.46 116.606 276.896 115.171 278.661 115.171C280.426 115.171 281.861 116.606 281.861 118.369ZM323.926 492.463C323.926 492.792 323.844 493.139 323.689 493.468C323.634 493.587 323.57 493.697 323.506 493.806C322.994 494.583 322.043 495.204 320.726 495.204C320.186 495.204 319.711 495.103 319.299 494.921C318.961 494.775 318.659 494.583 318.412 494.354C318.248 494.199 318.101 494.025 317.973 493.843C317.681 493.404 317.525 492.92 317.525 492.463C317.525 491.851 317.8 491.175 318.33 490.654C318.879 490.106 319.692 489.723 320.726 489.723C321.165 489.723 321.567 489.796 321.924 489.915C322.527 490.125 323.012 490.481 323.35 490.91C323.725 491.385 323.926 491.943 323.926 492.463Z" fill="url(#paint76_linear_1439_568)"/>
<path fill-rule="evenodd" clip-rule="evenodd" d="M165.744 459.137V459.146C165.744 459.137 165.744 459.137 165.744 459.137Z" fill="url(#paint77_linear_1439_568)"/>
<defs>
<linearGradient id="paint0_linear_1439_568" x1="360.047" y1="67.2104" x2="360.047" y2="640" gradientUnits="userSpaceOnUse">
<stop stop-color="#D5A13B"/>
<stop offset="0.370192" stop-color="#E4C75A"/>
<stop offset="0.583925" stop-color="#D5A13B"/>
<stop offset="1" stop-color="#A87629"/>
</linearGradient>
<linearGradient id="paint1_linear_1439_568" x1="360.047" y1="67.2104" x2="360.047" y2="640" gradientUnits="userSpaceOnUse">
<stop stop-color="#D5A13B"/>
<stop offset="0.370192" stop-color="#E4C75A"/>
<stop offset="0.583925" stop-color="#D5A13B"/>
<stop offset="1" stop-color="#A87629"/>
</linearGradient>
<linearGradient id="paint2_linear_1439_568" x1="360.047" y1="67.2104" x2="360.047" y2="640" gradientUnits="userSpaceOnUse">
<stop stop-color="#D5A13B"/>
<stop offset="0.370192" stop-color="#E4C75A"/>
<stop offset="0.583925" stop-color="#D5A13B"/>
<stop offset="1" stop-color="#A87629"/>
</linearGradient>
<linearGradient id="paint3_linear_1439_568" x1="360.047" y1="67.2104" x2="360.047" y2="640" gradientUnits="userSpaceOnUse">
<stop stop-color="#D5A13B"/>
<stop offset="0.370192" stop-color="#E4C75A"/>
<stop offset="0.583925" stop-color="#D5A13B"/>
<stop offset="1" stop-color="#A87629"/>
</linearGradient>
<linearGradient id="paint4_linear_1439_568" x1="360.047" y1="67.2104" x2="360.047" y2="640" gradientUnits="userSpaceOnUse">
<stop stop-color="#D5A13B"/>
<stop offset="0.370192" stop-color="#E4C75A"/>
<stop offset="0.583925" stop-color="#D5A13B"/>
<stop offset="1" stop-color="#A87629"/>
</linearGradient>
<linearGradient id="paint5_linear_1439_568" x1="360.047" y1="67.2104" x2="360.047" y2="640" gradientUnits="userSpaceOnUse">
<stop stop-color="#D5A13B"/>
<stop offset="0.370192" stop-color="#E4C75A"/>
<stop offset="0.583925" stop-color="#D5A13B"/>
<stop offset="1" stop-color="#A87629"/>
</linearGradient>
<linearGradient id="paint6_linear_1439_568" x1="360.047" y1="67.2104" x2="360.047" y2="640" gradientUnits="userSpaceOnUse">
<stop stop-color="#D5A13B"/>
<stop offset="0.370192" stop-color="#E4C75A"/>
<stop offset="0.583925" stop-color="#D5A13B"/>
<stop offset="1" stop-color="#A87629"/>
</linearGradient>
<linearGradient id="paint7_linear_1439_568" x1="360.047" y1="67.2104" x2="360.047" y2="640" gradientUnits="userSpaceOnUse">
<stop stop-color="#D5A13B"/>
<stop offset="0.370192" stop-color="#E4C75A"/>
<stop offset="0.583925" stop-color="#D5A13B"/>
<stop offset="1" stop-color="#A87629"/>
</linearGradient>
<linearGradient id="paint8_linear_1439_568" x1="360.047" y1="67.2104" x2="360.047" y2="640" gradientUnits="userSpaceOnUse">
<stop stop-color="#D5A13B"/>
<stop offset="0.370192" stop-color="#E4C75A"/>
<stop offset="0.583925" stop-color="#D5A13B"/>
<stop offset="1" stop-color="#A87629"/>
</linearGradient>
<linearGradient id="paint9_linear_1439_568" x1="360.047" y1="67.2104" x2="360.047" y2="640" gradientUnits="userSpaceOnUse">
<stop stop-color="#D5A13B"/>
<stop offset="0.370192" stop-color="#E4C75A"/>
<stop offset="0.583925" stop-color="#D5A13B"/>
<stop offset="1" stop-color="#A87629"/>
</linearGradient>
<linearGradient id="paint10_linear_1439_568" x1="360.047" y1="67.2104" x2="360.047" y2="640" gradientUnits="userSpaceOnUse">
<stop stop-color="#D5A13B"/>
<stop offset="0.370192" stop-color="#E4C75A"/>
<stop offset="0.583925" stop-color="#D5A13B"/>
<stop offset="1" stop-color="#A87629"/>
</linearGradient>
<linearGradient id="paint11_linear_1439_568" x1="360.047" y1="67.2104" x2="360.047" y2="640" gradientUnits="userSpaceOnUse">
<stop stop-color="#D5A13B"/>
<stop offset="0.370192" stop-color="#E4C75A"/>
<stop offset="0.583925" stop-color="#D5A13B"/>
<stop offset="1" stop-color="#A87629"/>
</linearGradient>
<linearGradient id="paint12_linear_1439_568" x1="360.047" y1="67.2104" x2="360.047" y2="640" gradientUnits="userSpaceOnUse">
<stop stop-color="#D5A13B"/>
<stop offset="0.370192" stop-color="#E4C75A"/>
<stop offset="0.583925" stop-color="#D5A13B"/>
<stop offset="1" stop-color="#A87629"/>
</linearGradient>
<linearGradient id="paint13_linear_1439_568" x1="360.047" y1="67.2104" x2="360.047" y2="640" gradientUnits="userSpaceOnUse">
<stop stop-color="#D5A13B"/>
<stop offset="0.370192" stop-color="#E4C75A"/>
<stop offset="0.583925" stop-color="#D5A13B"/>
<stop offset="1" stop-color="#A87629"/>
</linearGradient>
<linearGradient id="paint14_linear_1439_568" x1="360.047" y1="67.2104" x2="360.047" y2="640" gradientUnits="userSpaceOnUse">
<stop stop-color="#D5A13B"/>
<stop offset="0.370192" stop-color="#E4C75A"/>
<stop offset="0.583925" stop-color="#D5A13B"/>
<stop offset="1" stop-color="#A87629"/>
</linearGradient>
<linearGradient id="paint15_linear_1439_568" x1="360.047" y1="67.2104" x2="360.047" y2="640" gradientUnits="userSpaceOnUse">
<stop stop-color="#D5A13B"/>
<stop offset="0.370192" stop-color="#E4C75A"/>
<stop offset="0.583925" stop-color="#D5A13B"/>
<stop offset="1" stop-color="#A87629"/>
</linearGradient>
<linearGradient id="paint16_linear_1439_568" x1="360.047" y1="67.2104" x2="360.047" y2="640" gradientUnits="userSpaceOnUse">
<stop stop-color="#D5A13B"/>
<stop offset="0.370192" stop-color="#E4C75A"/>
<stop offset="0.583925" stop-color="#D5A13B"/>
<stop offset="1" stop-color="#A87629"/>
</linearGradient>
<linearGradient id="paint17_linear_1439_568" x1="360.047" y1="67.2104" x2="360.047" y2="640" gradientUnits="userSpaceOnUse">
<stop stop-color="#D5A13B"/>
<stop offset="0.370192" stop-color="#E4C75A"/>
<stop offset="0.583925" stop-color="#D5A13B"/>
<stop offset="1" stop-color="#A87629"/>
</linearGradient>
<linearGradient id="paint18_linear_1439_568" x1="360.047" y1="67.2104" x2="360.047" y2="640" gradientUnits="userSpaceOnUse">
<stop stop-color="#D5A13B"/>
<stop offset="0.370192" stop-color="#E4C75A"/>
<stop offset="0.583925" stop-color="#D5A13B"/>
<stop offset="1" stop-color="#A87629"/>
</linearGradient>
<linearGradient id="paint19_linear_1439_568" x1="360.047" y1="67.2104" x2="360.047" y2="640" gradientUnits="userSpaceOnUse">
<stop stop-color="#D5A13B"/>
<stop offset="0.370192" stop-color="#E4C75A"/>
<stop offset="0.583925" stop-color="#D5A13B"/>
<stop offset="1" stop-color="#A87629"/>
</linearGradient>
<linearGradient id="paint20_linear_1439_568" x1="360.047" y1="67.2104" x2="360.047" y2="640" gradientUnits="userSpaceOnUse">
<stop stop-color="#D5A13B"/>
<stop offset="0.370192" stop-color="#E4C75A"/>
<stop offset="0.583925" stop-color="#D5A13B"/>
<stop offset="1" stop-color="#A87629"/>
</linearGradient>
<linearGradient id="paint21_linear_1439_568" x1="360.047" y1="67.2104" x2="360.047" y2="640" gradientUnits="userSpaceOnUse">
<stop stop-color="#D5A13B"/>
<stop offset="0.370192" stop-color="#E4C75A"/>
<stop offset="0.583925" stop-color="#D5A13B"/>
<stop offset="1" stop-color="#A87629"/>
</linearGradient>
<linearGradient id="paint22_linear_1439_568" x1="360.047" y1="67.2104" x2="360.047" y2="640" gradientUnits="userSpaceOnUse">
<stop stop-color="#D5A13B"/>
<stop offset="0.370192" stop-color="#E4C75A"/>
<stop offset="0.583925" stop-color="#D5A13B"/>
<stop offset="1" stop-color="#A87629"/>
</linearGradient>
<linearGradient id="paint23_linear_1439_568" x1="360.047" y1="67.2104" x2="360.047" y2="640" gradientUnits="userSpaceOnUse">
<stop stop-color="#D5A13B"/>
<stop offset="0.370192" stop-color="#E4C75A"/>
<stop offset="0.583925" stop-color="#D5A13B"/>
<stop offset="1" stop-color="#A87629"/>
</linearGradient>
<linearGradient id="paint24_linear_1439_568" x1="360.047" y1="67.2104" x2="360.047" y2="640" gradientUnits="userSpaceOnUse">
<stop stop-color="#D5A13B"/>
<stop offset="0.370192" stop-color="#E4C75A"/>
<stop offset="0.583925" stop-color="#D5A13B"/>
<stop offset="1" stop-color="#A87629"/>
</linearGradient>
<linearGradient id="paint25_linear_1439_568" x1="360.047" y1="67.2104" x2="360.047" y2="640" gradientUnits="userSpaceOnUse">
<stop stop-color="#D5A13B"/>
<stop offset="0.370192" stop-color="#E4C75A"/>
<stop offset="0.583925" stop-color="#D5A13B"/>
<stop offset="1" stop-color="#A87629"/>
</linearGradient>
<linearGradient id="paint26_linear_1439_568" x1="360.047" y1="67.2104" x2="360.047" y2="640" gradientUnits="userSpaceOnUse">
<stop stop-color="#D5A13B"/>
<stop offset="0.370192" stop-color="#E4C75A"/>
<stop offset="0.583925" stop-color="#D5A13B"/>
<stop offset="1" stop-color="#A87629"/>
</linearGradient>
<linearGradient id="paint27_linear_1439_568" x1="360.047" y1="67.2104" x2="360.047" y2="640" gradientUnits="userSpaceOnUse">
<stop stop-color="#D5A13B"/>
<stop offset="0.370192" stop-color="#E4C75A"/>
<stop offset="0.583925" stop-color="#D5A13B"/>
<stop offset="1" stop-color="#A87629"/>
</linearGradient>
<linearGradient id="paint28_linear_1439_568" x1="360.047" y1="67.2104" x2="360.047" y2="640" gradientUnits="userSpaceOnUse">
<stop stop-color="#D5A13B"/>
<stop offset="0.370192" stop-color="#E4C75A"/>
<stop offset="0.583925" stop-color="#D5A13B"/>
<stop offset="1" stop-color="#A87629"/>
</linearGradient>
<linearGradient id="paint29_linear_1439_568" x1="360.047" y1="67.2104" x2="360.047" y2="640" gradientUnits="userSpaceOnUse">
<stop stop-color="#D5A13B"/>
<stop offset="0.370192" stop-color="#E4C75A"/>
<stop offset="0.583925" stop-color="#D5A13B"/>
<stop offset="1" stop-color="#A87629"/>
</linearGradient>
<linearGradient id="paint30_linear_1439_568" x1="360.047" y1="67.2104" x2="360.047" y2="640" gradientUnits="userSpaceOnUse">
<stop stop-color="#D5A13B"/>
<stop offset="0.370192" stop-color="#E4C75A"/>
<stop offset="0.583925" stop-color="#D5A13B"/>
<stop offset="1" stop-color="#A87629"/>
</linearGradient>
<linearGradient id="paint31_linear_1439_568" x1="360.047" y1="67.2104" x2="360.047" y2="640" gradientUnits="userSpaceOnUse">
<stop stop-color="#D5A13B"/>
<stop offset="0.370192" stop-color="#E4C75A"/>
<stop offset="0.583925" stop-color="#D5A13B"/>
<stop offset="1" stop-color="#A87629"/>
</linearGradient>
<linearGradient id="paint32_linear_1439_568" x1="360.047" y1="67.2104" x2="360.047" y2="640" gradientUnits="userSpaceOnUse">
<stop stop-color="#D5A13B"/>
<stop offset="0.370192" stop-color="#E4C75A"/>
<stop offset="0.583925" stop-color="#D5A13B"/>
<stop offset="1" stop-color="#A87629"/>
</linearGradient>
<linearGradient id="paint33_linear_1439_568" x1="360.047" y1="67.2104" x2="360.047" y2="640" gradientUnits="userSpaceOnUse">
<stop stop-color="#D5A13B"/>
<stop offset="0.370192" stop-color="#E4C75A"/>
<stop offset="0.583925" stop-color="#D5A13B"/>
<stop offset="1" stop-color="#A87629"/>
</linearGradient>
<linearGradient id="paint34_linear_1439_568" x1="360.047" y1="67.2104" x2="360.047" y2="640" gradientUnits="userSpaceOnUse">
<stop stop-color="#D5A13B"/>
<stop offset="0.370192" stop-color="#E4C75A"/>
<stop offset="0.583925" stop-color="#D5A13B"/>
<stop offset="1" stop-color="#A87629"/>
</linearGradient>
<linearGradient id="paint35_linear_1439_568" x1="360.047" y1="67.2104" x2="360.047" y2="640" gradientUnits="userSpaceOnUse">
<stop stop-color="#D5A13B"/>
<stop offset="0.370192" stop-color="#E4C75A"/>
<stop offset="0.583925" stop-color="#D5A13B"/>
<stop offset="1" stop-color="#A87629"/>
</linearGradient>
<linearGradient id="paint36_linear_1439_568" x1="360.047" y1="67.2104" x2="360.047" y2="640" gradientUnits="userSpaceOnUse">
<stop stop-color="#D5A13B"/>
<stop offset="0.370192" stop-color="#E4C75A"/>
<stop offset="0.583925" stop-color="#D5A13B"/>
<stop offset="1" stop-color="#A87629"/>
</linearGradient>
<linearGradient id="paint37_linear_1439_568" x1="360.047" y1="67.2104" x2="360.047" y2="640" gradientUnits="userSpaceOnUse">
<stop stop-color="#D5A13B"/>
<stop offset="0.370192" stop-color="#E4C75A"/>
<stop offset="0.583925" stop-color="#D5A13B"/>
<stop offset="1" stop-color="#A87629"/>
</linearGradient>
<linearGradient id="paint38_linear_1439_568" x1="360.047" y1="67.2104" x2="360.047" y2="640" gradientUnits="userSpaceOnUse">
<stop stop-color="#D5A13B"/>
<stop offset="0.370192" stop-color="#E4C75A"/>
<stop offset="0.583925" stop-color="#D5A13B"/>
<stop offset="1" stop-color="#A87629"/>
</linearGradient>
<linearGradient id="paint39_linear_1439_568" x1="360.047" y1="67.2104" x2="360.047" y2="640" gradientUnits="userSpaceOnUse">
<stop stop-color="#D5A13B"/>
<stop offset="0.370192" stop-color="#E4C75A"/>
<stop offset="0.583925" stop-color="#D5A13B"/>
<stop offset="1" stop-color="#A87629"/>
</linearGradient>
<linearGradient id="paint40_linear_1439_568" x1="360.047" y1="67.2104" x2="360.047" y2="640" gradientUnits="userSpaceOnUse">
<stop stop-color="#D5A13B"/>
<stop offset="0.370192" stop-color="#E4C75A"/>
<stop offset="0.583925" stop-color="#D5A13B"/>
<stop offset="1" stop-color="#A87629"/>
</linearGradient>
<linearGradient id="paint41_linear_1439_568" x1="360.047" y1="67.2104" x2="360.047" y2="640" gradientUnits="userSpaceOnUse">
<stop stop-color="#D5A13B"/>
<stop offset="0.370192" stop-color="#E4C75A"/>
<stop offset="0.583925" stop-color="#D5A13B"/>
<stop offset="1" stop-color="#A87629"/>
</linearGradient>
<linearGradient id="paint42_linear_1439_568" x1="360.047" y1="67.2104" x2="360.047" y2="640" gradientUnits="userSpaceOnUse">
<stop stop-color="#D5A13B"/>
<stop offset="0.370192" stop-color="#E4C75A"/>
<stop offset="0.583925" stop-color="#D5A13B"/>
<stop offset="1" stop-color="#A87629"/>
</linearGradient>
<linearGradient id="paint43_linear_1439_568" x1="360.047" y1="67.2104" x2="360.047" y2="640" gradientUnits="userSpaceOnUse">
<stop stop-color="#D5A13B"/>
<stop offset="0.370192" stop-color="#E4C75A"/>
<stop offset="0.583925" stop-color="#D5A13B"/>
<stop offset="1" stop-color="#A87629"/>
</linearGradient>
<linearGradient id="paint44_linear_1439_568" x1="360.047" y1="67.2104" x2="360.047" y2="640" gradientUnits="userSpaceOnUse">
<stop stop-color="#D5A13B"/>
<stop offset="0.370192" stop-color="#E4C75A"/>
<stop offset="0.583925" stop-color="#D5A13B"/>
<stop offset="1" stop-color="#A87629"/>
</linearGradient>
<linearGradient id="paint45_linear_1439_568" x1="360.047" y1="67.2104" x2="360.047" y2="640" gradientUnits="userSpaceOnUse">
<stop stop-color="#D5A13B"/>
<stop offset="0.370192" stop-color="#E4C75A"/>
<stop offset="0.583925" stop-color="#D5A13B"/>
<stop offset="1" stop-color="#A87629"/>
</linearGradient>
<linearGradient id="paint46_linear_1439_568" x1="360.047" y1="67.2104" x2="360.047" y2="640" gradientUnits="userSpaceOnUse">
<stop stop-color="#D5A13B"/>
<stop offset="0.370192" stop-color="#E4C75A"/>
<stop offset="0.583925" stop-color="#D5A13B"/>
<stop offset="1" stop-color="#A87629"/>
</linearGradient>
<linearGradient id="paint47_linear_1439_568" x1="360.047" y1="67.2104" x2="360.047" y2="640" gradientUnits="userSpaceOnUse">
<stop stop-color="#D5A13B"/>
<stop offset="0.370192" stop-color="#E4C75A"/>
<stop offset="0.583925" stop-color="#D5A13B"/>
<stop offset="1" stop-color="#A87629"/>
</linearGradient>
<linearGradient id="paint48_linear_1439_568" x1="360.047" y1="67.2104" x2="360.047" y2="640" gradientUnits="userSpaceOnUse">
<stop stop-color="#D5A13B"/>
<stop offset="0.370192" stop-color="#E4C75A"/>
<stop offset="0.583925" stop-color="#D5A13B"/>
<stop offset="1" stop-color="#A87629"/>
</linearGradient>
<linearGradient id="paint49_linear_1439_568" x1="360.047" y1="67.2104" x2="360.047" y2="640" gradientUnits="userSpaceOnUse">
<stop stop-color="#D5A13B"/>
<stop offset="0.370192" stop-color="#E4C75A"/>
<stop offset="0.583925" stop-color="#D5A13B"/>
<stop offset="1" stop-color="#A87629"/>
</linearGradient>
<linearGradient id="paint50_linear_1439_568" x1="360.047" y1="67.2104" x2="360.047" y2="640" gradientUnits="userSpaceOnUse">
<stop stop-color="#D5A13B"/>
<stop offset="0.370192" stop-color="#E4C75A"/>
<stop offset="0.583925" stop-color="#D5A13B"/>
<stop offset="1" stop-color="#A87629"/>
</linearGradient>
<linearGradient id="paint51_linear_1439_568" x1="360.047" y1="67.2104" x2="360.047" y2="640" gradientUnits="userSpaceOnUse">
<stop stop-color="#D5A13B"/>
<stop offset="0.370192" stop-color="#E4C75A"/>
<stop offset="0.583925" stop-color="#D5A13B"/>
<stop offset="1" stop-color="#A87629"/>
</linearGradient>
<linearGradient id="paint52_linear_1439_568" x1="360.047" y1="67.2104" x2="360.047" y2="640" gradientUnits="userSpaceOnUse">
<stop stop-color="#D5A13B"/>
<stop offset="0.370192" stop-color="#E4C75A"/>
<stop offset="0.583925" stop-color="#D5A13B"/>
<stop offset="1" stop-color="#A87629"/>
</linearGradient>
<linearGradient id="paint53_linear_1439_568" x1="360.047" y1="67.2104" x2="360.047" y2="640" gradientUnits="userSpaceOnUse">
<stop stop-color="#D5A13B"/>
<stop offset="0.370192" stop-color="#E4C75A"/>
<stop offset="0.583925" stop-color="#D5A13B"/>
<stop offset="1" stop-color="#A87629"/>
</linearGradient>
<linearGradient id="paint54_linear_1439_568" x1="360.047" y1="67.2104" x2="360.047" y2="640" gradientUnits="userSpaceOnUse">
<stop stop-color="#D5A13B"/>
<stop offset="0.370192" stop-color="#E4C75A"/>
<stop offset="0.583925" stop-color="#D5A13B"/>
<stop offset="1" stop-color="#A87629"/>
</linearGradient>
<linearGradient id="paint55_linear_1439_568" x1="360.047" y1="67.2104" x2="360.047" y2="640" gradientUnits="userSpaceOnUse">
<stop stop-color="#D5A13B"/>
<stop offset="0.370192" stop-color="#E4C75A"/>
<stop offset="0.583925" stop-color="#D5A13B"/>
<stop offset="1" stop-color="#A87629"/>
</linearGradient>
<linearGradient id="paint56_linear_1439_568" x1="360.047" y1="67.2104" x2="360.047" y2="640" gradientUnits="userSpaceOnUse">
<stop stop-color="#D5A13B"/>
<stop offset="0.370192" stop-color="#E4C75A"/>
<stop offset="0.583925" stop-color="#D5A13B"/>
<stop offset="1" stop-color="#A87629"/>
</linearGradient>
<linearGradient id="paint57_linear_1439_568" x1="360.047" y1="67.2104" x2="360.047" y2="640" gradientUnits="userSpaceOnUse">
<stop stop-color="#D5A13B"/>
<stop offset="0.370192" stop-color="#E4C75A"/>
<stop offset="0.583925" stop-color="#D5A13B"/>
<stop offset="1" stop-color="#A87629"/>
</linearGradient>
<linearGradient id="paint58_linear_1439_568" x1="360.047" y1="67.2104" x2="360.047" y2="640" gradientUnits="userSpaceOnUse">
<stop stop-color="#D5A13B"/>
<stop offset="0.370192" stop-color="#E4C75A"/>
<stop offset="0.583925" stop-color="#D5A13B"/>
<stop offset="1" stop-color="#A87629"/>
</linearGradient>
<linearGradient id="paint59_linear_1439_568" x1="360.047" y1="67.2104" x2="360.047" y2="640" gradientUnits="userSpaceOnUse">
<stop stop-color="#D5A13B"/>
<stop offset="0.370192" stop-color="#E4C75A"/>
<stop offset="0.583925" stop-color="#D5A13B"/>
<stop offset="1" stop-color="#A87629"/>
</linearGradient>
<linearGradient id="paint60_linear_1439_568" x1="360.047" y1="67.2104" x2="360.047" y2="640" gradientUnits="userSpaceOnUse">
<stop stop-color="#D5A13B"/>
<stop offset="0.370192" stop-color="#E4C75A"/>
<stop offset="0.583925" stop-color="#D5A13B"/>
<stop offset="1" stop-color="#A87629"/>
</linearGradient>
<linearGradient id="paint61_linear_1439_568" x1="360.047" y1="67.2104" x2="360.047" y2="640" gradientUnits="userSpaceOnUse">
<stop stop-color="#D5A13B"/>
<stop offset="0.370192" stop-color="#E4C75A"/>
<stop offset="0.583925" stop-color="#D5A13B"/>
<stop offset="1" stop-color="#A87629"/>
</linearGradient>
<linearGradient id="paint62_linear_1439_568" x1="360.047" y1="67.2104" x2="360.047" y2="640" gradientUnits="userSpaceOnUse">
<stop stop-color="#D5A13B"/>
<stop offset="0.370192" stop-color="#E4C75A"/>
<stop offset="0.583925" stop-color="#D5A13B"/>
<stop offset="1" stop-color="#A87629"/>
</linearGradient>
<linearGradient id="paint63_linear_1439_568" x1="360.047" y1="67.2104" x2="360.047" y2="640" gradientUnits="userSpaceOnUse">
<stop stop-color="#D5A13B"/>
<stop offset="0.370192" stop-color="#E4C75A"/>
<stop offset="0.583925" stop-color="#D5A13B"/>
<stop offset="1" stop-color="#A87629"/>
</linearGradient>
<linearGradient id="paint64_linear_1439_568" x1="360.047" y1="67.2104" x2="360.047" y2="640" gradientUnits="userSpaceOnUse">
<stop stop-color="#D5A13B"/>
<stop offset="0.370192" stop-color="#E4C75A"/>
<stop offset="0.583925" stop-color="#D5A13B"/>
<stop offset="1" stop-color="#A87629"/>
</linearGradient>
<linearGradient id="paint65_linear_1439_568" x1="360.047" y1="67.2104" x2="360.047" y2="640" gradientUnits="userSpaceOnUse">
<stop stop-color="#D5A13B"/>
<stop offset="0.370192" stop-color="#E4C75A"/>
<stop offset="0.583925" stop-color="#D5A13B"/>
<stop offset="1" stop-color="#A87629"/>
</linearGradient>
<linearGradient id="paint66_linear_1439_568" x1="360.047" y1="67.2104" x2="360.047" y2="640" gradientUnits="userSpaceOnUse">
<stop stop-color="#D5A13B"/>
<stop offset="0.370192" stop-color="#E4C75A"/>
<stop offset="0.583925" stop-color="#D5A13B"/>
<stop offset="1" stop-color="#A87629"/>
</linearGradient>
<linearGradient id="paint67_linear_1439_568" x1="360.047" y1="67.2104" x2="360.047" y2="640" gradientUnits="userSpaceOnUse">
<stop stop-color="#D5A13B"/>
<stop offset="0.370192" stop-color="#E4C75A"/>
<stop offset="0.583925" stop-color="#D5A13B"/>
<stop offset="1" stop-color="#A87629"/>
</linearGradient>
<linearGradient id="paint68_linear_1439_568" x1="360.047" y1="67.2104" x2="360.047" y2="640" gradientUnits="userSpaceOnUse">
<stop stop-color="#D5A13B"/>
<stop offset="0.370192" stop-color="#E4C75A"/>
<stop offset="0.583925" stop-color="#D5A13B"/>
<stop offset="1" stop-color="#A87629"/>
</linearGradient>
<linearGradient id="paint69_linear_1439_568" x1="360.047" y1="67.2104" x2="360.047" y2="640" gradientUnits="userSpaceOnUse">
<stop stop-color="#D5A13B"/>
<stop offset="0.370192" stop-color="#E4C75A"/>
<stop offset="0.583925" stop-color="#D5A13B"/>
<stop offset="1" stop-color="#A87629"/>
</linearGradient>
<linearGradient id="paint70_linear_1439_568" x1="360.047" y1="67.2104" x2="360.047" y2="640" gradientUnits="userSpaceOnUse">
<stop stop-color="#D5A13B"/>
<stop offset="0.370192" stop-color="#E4C75A"/>
<stop offset="0.583925" stop-color="#D5A13B"/>
<stop offset="1" stop-color="#A87629"/>
</linearGradient>
<linearGradient id="paint71_linear_1439_568" x1="360.047" y1="67.2104" x2="360.047" y2="640" gradientUnits="userSpaceOnUse">
<stop stop-color="#D5A13B"/>
<stop offset="0.370192" stop-color="#E4C75A"/>
<stop offset="0.583925" stop-color="#D5A13B"/>
<stop offset="1" stop-color="#A87629"/>
</linearGradient>
<linearGradient id="paint72_linear_1439_568" x1="360.047" y1="67.2104" x2="360.047" y2="640" gradientUnits="userSpaceOnUse">
<stop stop-color="#D5A13B"/>
<stop offset="0.370192" stop-color="#E4C75A"/>
<stop offset="0.583925" stop-color="#D5A13B"/>
<stop offset="1" stop-color="#A87629"/>
</linearGradient>
<linearGradient id="paint73_linear_1439_568" x1="360.047" y1="67.2104" x2="360.047" y2="640" gradientUnits="userSpaceOnUse">
<stop stop-color="#D5A13B"/>
<stop offset="0.370192" stop-color="#E4C75A"/>
<stop offset="0.583925" stop-color="#D5A13B"/>
<stop offset="1" stop-color="#A87629"/>
</linearGradient>
<linearGradient id="paint74_linear_1439_568" x1="360.047" y1="67.2104" x2="360.047" y2="640" gradientUnits="userSpaceOnUse">
<stop stop-color="#D5A13B"/>
<stop offset="0.370192" stop-color="#E4C75A"/>
<stop offset="0.583925" stop-color="#D5A13B"/>
<stop offset="1" stop-color="#A87629"/>
</linearGradient>
<linearGradient id="paint75_linear_1439_568" x1="360.047" y1="67.2104" x2="360.047" y2="640" gradientUnits="userSpaceOnUse">
<stop stop-color="#D5A13B"/>
<stop offset="0.370192" stop-color="#E4C75A"/>
<stop offset="0.583925" stop-color="#D5A13B"/>
<stop offset="1" stop-color="#A87629"/>
</linearGradient>
<linearGradient id="paint76_linear_1439_568" x1="360.047" y1="67.2104" x2="360.047" y2="640" gradientUnits="userSpaceOnUse">
<stop stop-color="#D5A13B"/>
<stop offset="0.370192" stop-color="#E4C75A"/>
<stop offset="0.583925" stop-color="#D5A13B"/>
<stop offset="1" stop-color="#A87629"/>
</linearGradient>
<linearGradient id="paint77_linear_1439_568" x1="360.047" y1="67.2104" x2="360.047" y2="640" gradientUnits="userSpaceOnUse">
<stop stop-color="#D5A13B"/>
<stop offset="0.370192" stop-color="#E4C75A"/>
<stop offset="0.583925" stop-color="#D5A13B"/>
<stop offset="1" stop-color="#A87629"/>
</linearGradient>
</defs>
</svg>
